<?xml version="1.0" encoding="UTF-8" standalone="no"?>
<svg
   xmlns:dc="http://purl.org/dc/elements/1.1/"
   xmlns:cc="http://creativecommons.org/ns#"
   xmlns:rdf="http://www.w3.org/1999/02/22-rdf-syntax-ns#"
   xmlns:svg="http://www.w3.org/2000/svg"
   xmlns="http://www.w3.org/2000/svg"
   xmlns:sodipodi="http://sodipodi.sourceforge.net/DTD/sodipodi-0.dtd"
   xmlns:inkscape="http://www.inkscape.org/namespaces/inkscape"
   height="469pt"
   viewBox="0 -42 469.33334 469"
   width="469pt"
   version="1.1"
   id="svg48"
   sodipodi:docname="1448429.svg"
   inkscape:version="0.92.3 (2405546, 2018-03-11)">
  <metadata
     id="metadata54">
    <rdf:RDF>
      <cc:Work
         rdf:about="">
        <dc:format>image/svg+xml</dc:format>
        <dc:type
           rdf:resource="http://purl.org/dc/dcmitype/StillImage" />
      </cc:Work>
    </rdf:RDF>
  </metadata>
  <defs
     id="defs52" />
  <sodipodi:namedview
     pagecolor="#ffffff"
     bordercolor="#666666"
     borderopacity="1"
     objecttolerance="10"
     gridtolerance="10"
     guidetolerance="10"
     inkscape:pageopacity="0"
     inkscape:pageshadow="2"
     inkscape:window-width="1853"
     inkscape:window-height="1016"
     id="namedview50"
     showgrid="false"
     inkscape:zoom="0.33137619"
     inkscape:cx="771.19768"
     inkscape:cy="380.33768"
     inkscape:window-x="67"
     inkscape:window-y="27"
     inkscape:window-maximized="1"
     inkscape:current-layer="svg48" />
  <rect
     style="opacity:1;fill:none;fill-opacity:0.94560673;stroke:#000001;stroke-width:4.10924721;stroke-linecap:round;stroke-miterlimit:4;stroke-dasharray:12.32774237, 12.32774236999999928;stroke-dashoffset:0;stroke-opacity:0.97071078"
     id="rect934"
     width="469.11368"
     height="469.11368"
     x="0.090997621"
     y="-42.01149"
     inkscape:export-xdpi="7.3699999"
     inkscape:export-ydpi="7.3699999" />
  <path
     d="m106.667969 341.5h170.664062c11.785157 0 21.335938 9.550781 21.335938 21.332031 0 11.785157-9.550781 21.335938-21.335938 21.335938h-170.664062c-11.785157 0-21.335938-9.550781-21.335938-21.335938 0-11.78125 9.550781-21.332031 21.335938-21.332031zm0 0"
     fill="#db7230"
     id="path2"
     inkscape:export-xdpi="7.3699999"
     inkscape:export-ydpi="7.3699999" />
  <path
     d="m277.332031 42.832031v256h85.335938c58.910156 0 106.664062-47.753906 106.664062-106.664062v-42.667969c0-58.910156-47.753906-106.667969-106.664062-106.667969zm85.335938 192h-21.335938v-128h21.335938c23.5625 0 42.664062 19.105469 42.664062 42.667969v42.667969c0 23.5625-19.101562 42.664062-42.664062 42.664062zm0 0"
     fill="#e18850"
     id="path4"
     inkscape:export-xdpi="7.3699999"
     inkscape:export-ydpi="7.3699999" />
  <path
     d="m405.332031 256.167969c0 11.78125-9.550781 21.332031-21.332031 21.332031s-21.332031-9.550781-21.332031-21.332031c0-11.785157 9.550781-21.335938 21.332031-21.335938s21.332031 9.550781 21.332031 21.335938zm0 0"
     fill="#c35422"
     id="path6"
     inkscape:export-xdpi="7.3699999"
     inkscape:export-ydpi="7.3699999" />
  <path
     d="m426.667969 213.5c-11.78125 0-21.335938-9.550781-21.335938-21.332031v-42.667969c-.023437-23.554688-19.109375-42.644531-42.664062-42.667969-11.777344-.007812-21.320313-9.554687-21.320313-21.332031s9.542969-21.324219 21.320313-21.332031c47.105469.050781 85.277343 38.226562 85.332031 85.332031v42.667969c0 11.78125-9.550781 21.332031-21.332031 21.332031zm0 0"
     fill="#c35422"
     id="path8"
     inkscape:export-xdpi="7.3699999"
     inkscape:export-ydpi="7.3699999" />
  <path
     d="m21.332031.167969h341.335938c11.78125 0 21.332031 9.550781 21.332031 21.332031v256c0 47.128906-38.203125 85.332031-85.332031 85.332031h-213.335938c-47.128906 0-85.332031-38.203125-85.332031-85.332031v-256c0-11.78125 9.550781-21.332031 21.332031-21.332031zm0 0"
     fill="#e8a073"
     id="path10"
     inkscape:export-xdpi="7.3699999"
     inkscape:export-ydpi="7.3699999" />
  <path
     d="m298.667969 277.5v-256c0-11.78125-9.550781-21.332031-21.335938-21.332031h-256c-11.78125 0-21.332031 9.550781-21.332031 21.332031v256c0 47.128906 38.203125 85.332031 85.332031 85.332031h128c47.128907 0 85.335938-38.203125 85.335938-85.332031zm0 0"
     fill="#f4ba93"
     id="path12"
     inkscape:export-xdpi="7.3699999"
     inkscape:export-ydpi="7.3699999" />
  <path
     d="m21.332031 149.5h341.335938v128c0 35.347656-28.65625 64-64 64h-213.335938c-35.34375 0-64-28.652344-64-64zm0 0"
     fill="#250700"
     id="path14"
     inkscape:export-xdpi="7.3699999"
     inkscape:export-ydpi="7.3699999" />
  <path
     d="m298.667969 149.5h-277.335938v128c0 35.347656 28.65625 64 64 64h183.90625c18.628907-16.054688 29.367188-39.40625 29.429688-64zm0 0"
     fill="#3e190c"
     id="path16"
     inkscape:export-xdpi="7.3699999"
     inkscape:export-ydpi="7.3699999" />
  <path
     d="m21.332031 149.5h341.335938v64h-341.335938zm0 0"
     fill="#953c1c"
     id="path18"
     inkscape:export-xdpi="7.3699999"
     inkscape:export-ydpi="7.3699999" />
  <path
     d="m298.667969 149.5h64v64h-64zm0 0"
     fill="#6e2200"
     id="path20"
     inkscape:export-xdpi="7.3699999"
     inkscape:export-ydpi="7.3699999" />
  <g
     fill="#a05034"
     id="g36"
     inkscape:export-xdpi="7.3699999"
     inkscape:export-ydpi="7.3699999">
    <path
       d="m170.667969 160.167969c0 5.890625-4.777344 10.664062-10.667969 10.664062s-10.667969-4.773437-10.667969-10.664062 4.777344-10.667969 10.667969-10.667969 10.667969 4.777344 10.667969 10.667969zm0 0"
       id="path22" />
    <path
       d="m170.667969 202.832031c0 5.890625-4.777344 10.667969-10.667969 10.667969s-10.667969-4.777344-10.667969-10.667969 4.777344-10.664062 10.667969-10.664062 10.667969 4.773437 10.667969 10.664062zm0 0"
       id="path24" />
    <path
       d="m128 181.5c0 5.890625-4.777344 10.667969-10.667969 10.667969s-10.664062-4.777344-10.664062-10.667969 4.773437-10.667969 10.664062-10.667969 10.667969 4.777344 10.667969 10.667969zm0 0"
       id="path26" />
    <path
       d="m256 160.167969c0 5.890625-4.777344 10.664062-10.667969 10.664062s-10.664062-4.773437-10.664062-10.664062 4.773437-10.667969 10.664062-10.667969 10.667969 4.777344 10.667969 10.667969zm0 0"
       id="path28" />
    <path
       d="m256 202.832031c0 5.890625-4.777344 10.667969-10.667969 10.667969s-10.664062-4.777344-10.664062-10.667969 4.773437-10.664062 10.664062-10.664062 10.667969 4.773437 10.667969 10.664062zm0 0"
       id="path30" />
    <path
       d="m213.332031 181.5c0 5.890625-4.773437 10.667969-10.664062 10.667969s-10.667969-4.777344-10.667969-10.667969 4.777344-10.667969 10.667969-10.667969 10.664062 4.777344 10.664062 10.667969zm0 0"
       id="path32" />
    <path
       d="m298.667969 181.5c0 5.890625-4.777344 10.667969-10.667969 10.667969s-10.667969-4.777344-10.667969-10.667969 4.777344-10.667969 10.667969-10.667969 10.667969 4.777344 10.667969 10.667969zm0 0"
       id="path34" />
  </g>
  <path
     d="m341.332031 160.167969c0 5.890625-4.773437 10.664062-10.664062 10.664062s-10.667969-4.773437-10.667969-10.664062 4.777344-10.667969 10.667969-10.667969 10.664062 4.777344 10.664062 10.667969zm0 0"
     fill="#953c1c"
     id="path38"
     inkscape:export-xdpi="7.3699999"
     inkscape:export-ydpi="7.3699999" />
  <path
     d="m341.332031 202.832031c0 5.890625-4.773437 10.667969-10.664062 10.667969s-10.667969-4.777344-10.667969-10.667969 4.777344-10.664062 10.667969-10.664062 10.664062 4.773437 10.664062 10.664062zm0 0"
     fill="#953c1c"
     id="path40"
     inkscape:export-xdpi="7.3699999"
     inkscape:export-ydpi="7.3699999" />
  <path
     d="m64 234.832031c11.78125 0 21.332031 9.550781 21.332031 21.335938v21.332031c0 11.78125-9.550781 21.332031-21.332031 21.332031s-21.332031-9.550781-21.332031-21.332031v-21.332031c0-11.785157 9.550781-21.335938 21.332031-21.335938zm0 0"
     fill="#b77b65"
     id="path42"
     inkscape:export-xdpi="7.3699999"
     inkscape:export-ydpi="7.3699999" />
  <path
     d="m64 42.832031c11.78125 0 21.332031 9.550781 21.332031 21.335938 0 11.78125-9.550781 21.332031-21.332031 21.332031s-21.332031-9.550781-21.332031-21.332031c0-11.785157 9.550781-21.335938 21.332031-21.335938zm0 0"
     fill="#fdf6f1"
     id="path44"
     inkscape:export-xdpi="7.3699999"
     inkscape:export-ydpi="7.3699999" />
  <path
     d="m64 106.832031c11.78125 0 21.332031 9.550781 21.332031 21.335938v64c0 11.78125-9.550781 21.332031-21.332031 21.332031s-21.332031-9.550781-21.332031-21.332031v-64c0-11.785157 9.550781-21.335938 21.332031-21.335938zm0 0"
     fill="#fdf6f1"
     id="path46"
     inkscape:export-xdpi="7.3699999"
     inkscape:export-ydpi="7.3699999" />
  <path
     id="path864"
     d="m -433.71582,341.5 h 170.66406 c 11.78516,0 21.33594,9.55078 21.33594,21.33203 0,11.78516 -9.55078,21.33594 -21.33594,21.33594 h -170.66406 c -11.78515,0 -21.33593,-9.55078 -21.33593,-21.33594 0,-11.78125 9.55078,-21.33203 21.33593,-21.33203 z m 0,0"
     inkscape:connector-curvature="0"
     style="fill:#db7230"
     inkscape:export-xdpi="7.3083029"
     inkscape:export-ydpi="7.3083029" />
  <path
     id="path866"
     d="M -263.05176,42.832031 V 298.83203 h 85.33594 c 58.91015,0 106.664067,-47.7539 106.664067,-106.66406 V 149.5 c 0,-58.910156 -47.753917,-106.667969 -106.664067,-106.667969 z m 85.33594,191.999999 h -21.33594 v -128 h 21.33594 c 23.5625,0 42.66406,19.10547 42.66406,42.66797 v 42.66797 c 0,23.5625 -19.10156,42.66406 -42.66406,42.66406 z m 0,0"
     inkscape:connector-curvature="0"
     style="fill:#e18850"
     inkscape:export-xdpi="7.3083029"
     inkscape:export-ydpi="7.3083029" />
  <path
     id="path868"
     d="m -135.05176,256.16797 c 0,11.78125 -9.55078,21.33203 -21.33203,21.33203 -11.78125,0 -21.33203,-9.55078 -21.33203,-21.33203 0,-11.78516 9.55078,-21.33594 21.33203,-21.33594 11.78125,0 21.33203,9.55078 21.33203,21.33594 z m 0,0"
     inkscape:connector-curvature="0"
     style="fill:#c35422"
     inkscape:export-xdpi="7.3083029"
     inkscape:export-ydpi="7.3083029" />
  <path
     id="path870"
     d="m -113.71582,213.5 c -11.78125,0 -21.33594,-9.55078 -21.33594,-21.33203 V 149.5 c -0.0234,-23.55469 -19.10938,-42.64453 -42.66406,-42.66797 -11.77735,-0.008 -21.32032,-9.554686 -21.32032,-21.33203 0,-11.777344 9.54297,-21.324219 21.32032,-21.332031 47.10547,0.05078 85.277345,38.226561 85.332035,85.332031 v 42.66797 c 0,11.78125 -9.550785,21.33203 -21.332035,21.33203 z m 0,0"
     inkscape:connector-curvature="0"
     style="fill:#c35422"
     inkscape:export-xdpi="7.3083029"
     inkscape:export-ydpi="7.3083029" />
  <path
     id="path872"
     d="m -519.05175,0.167969 h 341.33593 c 11.78125,0 21.33203,9.550781 21.33203,21.332031 v 256 c 0,47.12891 -38.20313,85.33203 -85.33203,85.33203 h -213.33593 c -47.1289,0 -85.33202,-38.20312 -85.33202,-85.33203 v -256 c 0,-11.78125 9.55078,-21.332031 21.33202,-21.332031 z m 0,0"
     inkscape:connector-curvature="0"
     style="fill:#e8a073"
     inkscape:export-xdpi="7.3083029"
     inkscape:export-ydpi="7.3083029" />
  <path
     id="path874"
     d="m -241.71582,277.5 v -256 c 0,-11.78125 -9.55078,-21.332031 -21.33594,-21.332031 h -255.99999 c -11.78124,0 -21.33202,9.550781 -21.33202,21.332031 v 256 c 0,47.12891 38.20312,85.33203 85.33202,85.33203 h 127.99999 c 47.12891,0 85.33594,-38.20312 85.33594,-85.33203 z m 0,0"
     inkscape:connector-curvature="0"
     style="fill:#f4ba93"
     inkscape:export-xdpi="7.3083029"
     inkscape:export-ydpi="7.3083029" />
  <path
     id="path876"
     d="m -519.05175,149.5 h 341.33593 v 128 c 0,35.34766 -28.65625,64 -64,64 h -213.33593 c -35.34375,0 -64,-28.65234 -64,-64 z m 0,0"
     inkscape:connector-curvature="0"
     style="fill:#250700"
     inkscape:export-xdpi="7.3083029"
     inkscape:export-ydpi="7.3083029" />
  <path
     id="path878"
     d="m -241.71582,149.5 h -277.33593 v 128 c 0,35.34766 28.65625,64 64,64 h 183.90624 c 18.62891,-16.05469 29.36719,-39.40625 29.42969,-64 z m 0,0"
     inkscape:connector-curvature="0"
     style="fill:#3e190c"
     inkscape:export-xdpi="7.3083029"
     inkscape:export-ydpi="7.3083029" />
  <path
     id="path882"
     d="m -241.71582,149.5 h 64 v 64 h -64 z m 0,0"
     inkscape:connector-curvature="0"
     style="fill:#6e2200"
     inkscape:export-xdpi="7.3083029"
     inkscape:export-ydpi="7.3083029" />
  <path
     id="path904"
     d="m -476.38378,234.83203 c 11.78125,0 21.33203,9.55078 21.33203,21.33594 V 277.5 c 0,11.78125 -9.55078,21.33203 -21.33203,21.33203 -11.78125,0 -21.33203,-9.55078 -21.33203,-21.33203 v -21.33203 c 0,-11.78516 9.55078,-21.33594 21.33203,-21.33594 z m 0,0"
     inkscape:connector-curvature="0"
     style="fill:#b77b65"
     inkscape:export-xdpi="7.3083029"
     inkscape:export-ydpi="7.3083029" />
  <path
     id="path906"
     d="m -476.38378,42.832031 c 11.78125,0 21.33203,9.550781 21.33203,21.335938 0,11.78125 -9.55078,21.332031 -21.33203,21.332031 -11.78125,0 -21.33203,-9.550781 -21.33203,-21.332031 0,-11.785157 9.55078,-21.335938 21.33203,-21.335938 z m 0,0"
     inkscape:connector-curvature="0"
     style="fill:#fdf6f1"
     inkscape:export-xdpi="7.3083029"
     inkscape:export-ydpi="7.3083029" />
  <path
     id="path908"
     d="m -476.38378,106.83203 c 11.78125,0 21.33203,9.55078 21.33203,21.33594 v 64 c 0,11.78125 -9.55078,21.33203 -21.33203,21.33203 -11.78125,0 -21.33203,-9.55078 -21.33203,-21.33203 v -64 c 0,-11.78516 9.55078,-21.33594 21.33203,-21.33594 z m 0,0"
     inkscape:connector-curvature="0"
     style="fill:#fdf6f1"
     inkscape:export-xdpi="7.3083029"
     inkscape:export-ydpi="7.3083029" />
  <path
     style="fill:#db7230"
     inkscape:connector-curvature="0"
     d="m -433.71582,850.36149 h 170.66406 c 11.78516,0 21.33594,9.55078 21.33594,21.33203 0,11.78516 -9.55078,21.33594 -21.33594,21.33594 h -170.66406 c -11.78515,0 -21.33593,-9.55078 -21.33593,-21.33594 0,-11.78125 9.55078,-21.33203 21.33593,-21.33203 z m 0,0"
     id="path910"
     inkscape:export-xdpi="7.3083029"
     inkscape:export-ydpi="7.3083029" />
  <path
     style="fill:#e18850"
     inkscape:connector-curvature="0"
     d="m -263.05176,551.69353 v 255.99999 h 85.33594 c 58.91015,0 106.664067,-47.7539 106.664067,-106.66406 v -42.66797 c 0,-58.91015 -47.753917,-106.66796 -106.664067,-106.66796 z m 85.33594,191.99999 h -21.33594 v -128 h 21.33594 c 23.5625,0 42.66406,19.10547 42.66406,42.66797 v 42.66797 c 0,23.5625 -19.10156,42.66406 -42.66406,42.66406 z m 0,0"
     id="path912"
     inkscape:export-xdpi="7.3083029"
     inkscape:export-ydpi="7.3083029" />
  <path
     style="fill:#c35422"
     inkscape:connector-curvature="0"
     d="m -135.05176,765.02946 c 0,11.78125 -9.55078,21.33203 -21.33203,21.33203 -11.78125,0 -21.33203,-9.55078 -21.33203,-21.33203 0,-11.78516 9.55078,-21.33594 21.33203,-21.33594 11.78125,0 21.33203,9.55078 21.33203,21.33594 z m 0,0"
     id="path914"
     inkscape:export-xdpi="7.3083029"
     inkscape:export-ydpi="7.3083029" />
  <path
     style="fill:#c35422"
     inkscape:connector-curvature="0"
     d="m -113.71582,722.36149 c -11.78125,0 -21.33594,-9.55078 -21.33594,-21.33203 v -42.66797 c -0.0234,-23.55469 -19.10938,-42.64453 -42.66406,-42.66797 -11.77735,-0.008 -21.32032,-9.55468 -21.32032,-21.33203 0,-11.77734 9.54297,-21.32421 21.32032,-21.33203 47.10547,0.0508 85.277345,38.22656 85.332035,85.33203 v 42.66797 c 0,11.78125 -9.550785,21.33203 -21.332035,21.33203 z m 0,0"
     id="path916"
     inkscape:export-xdpi="7.3083029"
     inkscape:export-ydpi="7.3083029" />
  <path
     style="fill:#e8a073"
     inkscape:connector-curvature="0"
     d="m -519.05175,509.02947 h 341.33593 c 11.78125,0 21.33203,9.55078 21.33203,21.33203 v 255.99999 c 0,47.12891 -38.20313,85.33203 -85.33203,85.33203 h -213.33593 c -47.1289,0 -85.33202,-38.20312 -85.33202,-85.33203 V 530.3615 c 0,-11.78125 9.55078,-21.33203 21.33202,-21.33203 z m 0,0"
     id="path918"
     inkscape:export-xdpi="7.3083029"
     inkscape:export-ydpi="7.3083029" />
  <path
     style="fill:#f4ba93"
     inkscape:connector-curvature="0"
     d="M -241.71582,786.36149 V 530.3615 c 0,-11.78125 -9.55078,-21.33203 -21.33594,-21.33203 h -255.99999 c -11.78124,0 -21.33202,9.55078 -21.33202,21.33203 v 255.99999 c 0,47.12891 38.20312,85.33203 85.33202,85.33203 h 127.99999 c 47.12891,0 85.33594,-38.20312 85.33594,-85.33203 z m 0,0"
     id="path920"
     inkscape:export-xdpi="7.3083029"
     inkscape:export-ydpi="7.3083029" />
  <path
     style="fill:#b77b65"
     inkscape:connector-curvature="0"
     d="m -476.38378,743.69352 c 11.78125,0 21.33203,9.55078 21.33203,21.33594 v 21.33203 c 0,11.78125 -9.55078,21.33203 -21.33203,21.33203 -11.78125,0 -21.33203,-9.55078 -21.33203,-21.33203 v -21.33203 c 0,-11.78516 9.55078,-21.33594 21.33203,-21.33594 z m 0,0"
     id="path928"
     inkscape:export-xdpi="7.3083029"
     inkscape:export-ydpi="7.3083029" />
  <path
     style="fill:#fdf6f1"
     inkscape:connector-curvature="0"
     d="m -476.38378,551.69353 c 11.78125,0 21.33203,9.55078 21.33203,21.33593 0,11.78125 -9.55078,21.33203 -21.33203,21.33203 -11.78125,0 -21.33203,-9.55078 -21.33203,-21.33203 0,-11.78515 9.55078,-21.33593 21.33203,-21.33593 z m 0,0"
     id="path930"
     inkscape:export-xdpi="7.3083029"
     inkscape:export-ydpi="7.3083029" />
  <path
     style="fill:#fdf6f1"
     inkscape:connector-curvature="0"
     d="m -476.38378,615.69352 c 11.78125,0 21.33203,9.55078 21.33203,21.33594 v 64 c 0,11.78125 -9.55078,21.33203 -21.33203,21.33203 -11.78125,0 -21.33203,-9.55078 -21.33203,-21.33203 v -64 c 0,-11.78516 9.55078,-21.33594 21.33203,-21.33594 z m 0,0"
     id="path932"
     inkscape:export-xdpi="7.3083029"
     inkscape:export-ydpi="7.3083029" />
  <rect
     inkscape:export-ydpi="7.3083029"
     inkscape:export-xdpi="7.3083029"
     y="-42.01149"
     x="-540.29272"
     height="469.11368"
     width="469.11368"
     id="rect936"
     style="opacity:1;fill:none;fill-opacity:0.94560673;stroke:#000001;stroke-width:4.10924721;stroke-linecap:round;stroke-miterlimit:4;stroke-dasharray:12.32774237, 12.32774237;stroke-dashoffset:0;stroke-opacity:0.97071078" />
  <rect
     style="opacity:1;fill:none;fill-opacity:0.94560673;stroke:#000001;stroke-width:4.10924721;stroke-linecap:round;stroke-miterlimit:4;stroke-dasharray:12.32774237, 12.32774237;stroke-dashoffset:0;stroke-opacity:0.97071078"
     id="rect938"
     width="469.11368"
     height="469.11368"
     x="-540.29272"
     y="466.84988"
     inkscape:export-xdpi="7.3083029"
     inkscape:export-ydpi="7.3083029" />
</svg>
