<svg id="Flat" height="512" viewBox="0 0 512 512" width="512" xmlns="http://www.w3.org/2000/svg"><path d="m488 222.15991v239.17009l-8 26.67h-344v-64h24l-67.19995-168h-36.80005a24.002 24.002 0 0 1 -24-24v-24a24.00619 24.00619 0 0 1 24-24h24.45a64.00059 64.00059 0 0 1 57.24 35.38l62.31 124.62 11.24-30.92 5.65015-15.52991a96.0303 96.0303 0 0 1 56.50975-57.08009l22.6001-8.47 24-16 80-24 40 8 33.24 14.25a95.98946 95.98946 0 0 1 14.76 7.90991z" fill="#ffc7cc"/><path d="m424 400v8l-184 16h-80.40991c0-.32007.01977-.63.03-.95l-6.02-15.05h11.43991a26.12921 26.12921 0 0 1 25.93-9.72 21.185 21.185 0 0 1 13.5 9.04l.46.67993h34.37012l1.98-.17 167.66988-14.57993 1.21-18.16z" fill="#fe99a0"/><path d="m488 222.15991v144.61009l-60.32007-13.92-3.67993 55.15-184 16 3.8-48.11a262.39392 262.39392 0 0 1 7.35986-49.5l-39.91986-13.31 5.65015-15.52991a96.0303 96.0303 0 0 1 56.50975-57.08009l22.6001-8.47 24-16 80-24 40 8 33.24 14.25a95.98946 95.98946 0 0 1 14.76 7.90991z" fill="#3ea7ff"/><path d="m424.5498 279.48535a8.00286 8.00286 0 0 0 -8.51464 7.4502l-7.08789 106.3125-167.66993 14.58032-1.27734 16.17163 184-16 8-120a8.00032 8.00032 0 0 0 -7.4502-8.51465z" fill="#2b7cd4"/><path d="m381.09082 24h-101.09082a16 16 0 0 0 -16 16 16.00008 16.00008 0 0 0 16 16l-40 72h32v64h48v24l24 24 56-48v-32l16.543-93.74365a36 36 0 0 0 -35.45218-42.25635z" fill="#ffc7cc"/><path d="m280 56h56v56l24-24 24 16-24 32 40 24 16.543-93.74373a36 36 0 0 0 -35.4522-42.25627h-101.0908a16 16 0 0 0 -16 16 16 16 0 0 0 16 16z" fill="#8e5428"/><path d="m304 104h-8a8 8 0 0 1 0-16h8a8 8 0 0 1 0 16z" fill="#8e5428"/><path d="m196.877 407.31543a21.226 21.226 0 0 0 -13.49829-9.0398h-.00024a26.23371 26.23371 0 0 0 -31.37847 25.72437v9.82275h56v-9.82275z" fill="#ffc7cc"/><path d="m102.03613 275.91748a29.95222 29.95222 0 0 1 -9.49023-1.53662 8.00035 8.00035 0 0 1 5.0625-15.17871 14.259 14.259 0 0 0 11.20215-1.0127 14.08772 14.08772 0 0 0 6.86816-8.90722l4.32129-17.28223a7.99965 7.99965 0 1 1 15.52148 3.88086l-4.32031 17.28125a30.0308 30.0308 0 0 1 -29.165 22.75537z" fill="#fe99a0"/><path d="m72 216a16 16 0 0 1 16 16v32a0 0 0 0 1 0 0h-32a0 0 0 0 1 0 0v-32a16 16 0 0 1 16-16z" fill="#2b7cd4"/><path d="m88 256 28.48358 8 9.57086-3.19029a44.02393 44.02393 0 0 1 54.386 24.4229 44.02393 44.02393 0 0 1 -1.08818 37.03l-.32755.65509a44.02391 44.02391 0 0 1 -46.61371 23.73687l-15.92742-2.65457-48 16v-104z" fill="#3ea7ff"/><path d="m100.48364 296c0-22.09143-14.3269-40-32-40s-32 17.90857-32 40c0 13.08643 5.02832 24.70349 12.80054 32.00122l19.19946 31.99878 19.19922-31.99878c7.77222-7.29773 12.80078-18.91479 12.80078-32.00122z" fill="#104f91"/><path d="m132.4834 288a8.00008 8.00008 0 0 0 -8 8 71.042 71.042 0 0 1 -11.96875 39.53174l-8.39209 12.58862 12.36108-4.12036 8.65308 1.44214.69043-1.0354a86.9927 86.9927 0 0 0 14.65625-48.40674 8.00008 8.00008 0 0 0 -8-8z" fill="#2b7cd4"/><path d="m120 232-4.32029 17.28116a14.04959 14.04959 0 0 1 -18.073 9.92109 14.04959 14.04959 0 0 1 -9.60671-13.32862v-13.87363z" fill="#ffc7cc"/><path d="m100.48 296c0 12.90991-4.87988 24.38-12.48 31.68994v80.31006h-32v-68.8l-6.72-11.2a40.57986 40.57986 0 0 1 -10.84009-18.17993 146.05231 146.05231 0 0 1 61.52-21.02 49.99524 49.99524 0 0 1 .52009 7.19993z" fill="#e6e6e6"/><path d="m424 400v8l-184 16 1.28-16.17 2.52-31.94q.19482-3.96.53-7.89a261.839 261.839 0 0 1 4.6499-32h100.14022l34.87988-8 26.15991 47.09z" fill="#dc9265"/><path d="m400 208v.00006a262.83976 262.83976 0 0 0 -52.2047 143.88929l-.84793 16.11065h39.579l1.269-24.11065a262.83976 262.83976 0 0 1 52.20463-143.88929v-.00006z" fill="#ad693d"/><path d="m328 224v.00006a263.01455 263.01455 0 0 0 -52.2047 143.94461l-31.46511.05519a262.83956 262.83956 0 0 1 51.66981-135.9998v-.00006z" fill="#ad693d"/><path d="m320 216-24 16 16 32 32-24z" fill="#87c9ff"/><path d="m424 400v8l-184 16 1.28-16.17 167.67-14.58 1.21-18.16z" fill="#ad693d"/><path d="m344 240 16 24 80-64-40-8z" fill="#87c9ff"/><path d="m120 472h-24v-16h24a16 16 0 0 0 0-32h-24v-16h24a32 32 0 0 1 0 64z" fill="#8e5428"/><path d="m48 408h32a24 24 0 0 1 24 24v56a0 0 0 0 1 0 0h-80a0 0 0 0 1 0 0v-56a24 24 0 0 1 24-24z" fill="#fd7b2f" transform="matrix(-1 0 0 -1 128 896)"/><path d="m48 408h32a24 24 0 0 1 24 24v56a0 0 0 0 1 0 0h-80a0 0 0 0 1 0 0v-56a24 24 0 0 1 24-24z" fill="#dc9265" transform="matrix(-1 0 0 -1 128 896)"/><path d="m88 408v24a40.0001 40.0001 0 0 1 -40 40h-16a23.98962 23.98962 0 0 1 -6.96875-1.03125 24.00784 24.00784 0 0 0 22.96875 17.03125h32a23.99994 23.99994 0 0 0 24-24v-56z" fill="#ad693d"/><path d="m184 424a8.00008 8.00008 0 0 0 -8-8h-22.75415a26.24365 26.24365 0 0 0 -1.24585 8v8h24a8.00008 8.00008 0 0 0 8-8z" fill="#fe99a0"/><path d="m488 366.77v94.56l-8 26.67h-344v-64h104l184-16 3.68-55.15z" fill="#ffc7cc"/><g fill="#fe99a0"><path d="m200 343.99988 8 16.00012a7.99984 7.99984 0 1 0 14.31055-7.15527l-14.77855-29.55762z"/><path d="m355.31445 179.31348a8.00018 8.00018 0 1 0 -11.31445-11.31348l-24 24v22.62793z"/></g></svg>