<svg id="Flat" height="512" viewBox="0 0 512 512" width="512" xmlns="http://www.w3.org/2000/svg"><path d="m24 456h464v32h-464z" fill="#8e5428"/><path d="m24 120h464v336h-464z" fill="#dc9265"/><path d="m288 120h96v40h-96z" fill="#8e5428"/><path d="m104 160h128v32h-128z" fill="#ccc"/><path d="m120 192h96v56h-96z" fill="#e6e6e6"/><path d="m24 24h464v96h-464z" fill="#ad693d"/><circle cx="256" cy="72" fill="#7ab555" r="16"/><path d="m152 248h32v32h-32z" fill="#b3b3b3"/><path d="m152 248a0 0 0 0 1 0 0v32a0 0 0 0 1 0 0h-32a0 0 0 0 1 0 0 32 32 0 0 1 32-32z" fill="#ccc"/><path d="m184 248h32a0 0 0 0 1 0 0v32a0 0 0 0 1 0 0 32 32 0 0 1 -32-32 0 0 0 0 1 0 0z" fill="#ccc" transform="matrix(-1 0 0 -1 400 528)"/><path d="m248 400h-24v-16h24a16 16 0 0 0 0-32h-24v-16h24a32 32 0 0 1 0 64z" fill="#104f91"/><path d="m104 328h128a0 0 0 0 1 0 0v48a48 48 0 0 1 -48 48h-32a48 48 0 0 1 -48-48v-48a0 0 0 0 1 0 0z" fill="#3ea7ff"/><path d="m208 328v16a48 48 0 0 1 -48 48h-32a47.784 47.784 0 0 1 -22.90515-5.808 48.01 48.01 0 0 0 46.90515 37.808h32a48 48 0 0 0 48-48v-48z" fill="#2b7cd4"/><path d="m216 216h48v16h-48z" fill="#ccc"/><path d="m264 200h192v48h-192z" fill="#8e5428"/><path d="m80 424h176a0 0 0 0 1 0 0 32 32 0 0 1 -32 32h-112a32 32 0 0 1 -32-32 0 0 0 0 1 0 0z" fill="#104f91"/><g fill="#7ab555"><path d="m144 56h32v32h-32z"/><path d="m80 56h32v32h-32z"/><path d="m400 56h32v32h-32z"/><path d="m336 56h32v32h-32z"/></g><path d="m120 120h96v40h-96z" fill="#8e5428"/><path d="m488 24v96h-120a96.00769 96.00769 0 0 0 96-96z" fill="#8e5428"/></svg>