<?xml version="1.0" encoding="UTF-8" standalone="no"?>
<svg
   xmlns:dc="http://purl.org/dc/elements/1.1/"
   xmlns:cc="http://creativecommons.org/ns#"
   xmlns:rdf="http://www.w3.org/1999/02/22-rdf-syntax-ns#"
   xmlns:svg="http://www.w3.org/2000/svg"
   xmlns="http://www.w3.org/2000/svg"
   xmlns:sodipodi="http://sodipodi.sourceforge.net/DTD/sodipodi-0.dtd"
   xmlns:inkscape="http://www.inkscape.org/namespaces/inkscape"
   height="512"
   viewBox="0 0 512 512"
   width="512"
   version="1.1"
   id="svg67"
   sodipodi:docname="3048120.svg"
   inkscape:version="0.92.3 (2405546, 2018-03-11)">
  <metadata
     id="metadata73">
    <rdf:RDF>
      <cc:Work
         rdf:about="">
        <dc:format>image/svg+xml</dc:format>
        <dc:type
           rdf:resource="http://purl.org/dc/dcmitype/StillImage" />
      </cc:Work>
    </rdf:RDF>
  </metadata>
  <defs
     id="defs71" />
  <sodipodi:namedview
     pagecolor="#ffffff"
     bordercolor="#666666"
     borderopacity="1"
     objecttolerance="10"
     gridtolerance="10"
     guidetolerance="10"
     inkscape:pageopacity="0"
     inkscape:pageshadow="2"
     inkscape:window-width="1853"
     inkscape:window-height="1016"
     id="namedview69"
     showgrid="false"
     inkscape:zoom="0.40078553"
     inkscape:cx="-287.70001"
     inkscape:cy="483.51409"
     inkscape:window-x="67"
     inkscape:window-y="27"
     inkscape:window-maximized="1"
     inkscape:current-layer="svg67" />
  <rect
     style="opacity:1;fill:none;fill-opacity:1;stroke:#000001;stroke-width:2.51862216;stroke-linecap:round;stroke-miterlimit:4;stroke-dasharray:7.55586602, 7.55586601999999985;stroke-dashoffset:0;stroke-opacity:0.97071078"
     id="rect883"
     width="512.18335"
     height="512.18335"
     x="-0.077107869"
     y="0.050914973" />
  <g
     id="flat">
    <path
       d="m296 341.859 147.7 73.853a60 60 0 0 1 32.612 45.488l3.688 26.8h-448l3.688-26.8a60 60 0 0 1 32.612-45.488l147.7-73.853z"
       fill="#eaeae8"
       id="path2" />
    <path
       d="m312 349.859-16-8v-32h-80v32l-16 8 56 26.141z"
       fill="#fdc9a6"
       id="path4" />
    <path
       d="m152 192v-59.156a53.9 53.9 0 0 1 24-44.844l6.535-13.07a53.892 53.892 0 0 1 29.282-26.361l9.06-3.4a93.417 93.417 0 0 1 69.6 1.605 93.419 93.419 0 0 1 36.149 27.508l15.508 19.385a53.831 53.831 0 0 0 3.976 4.442 47.421 47.421 0 0 1 13.89 33.533v60.358z"
       fill="#5f4623"
       id="path6" />
    <path
       d="m224 120a8 8 0 0 1 -8-8v-32a8 8 0 0 1 16 0v32a8 8 0 0 1 -8 8z"
       fill="#48351b"
       id="path8" />
    <path
       d="m256 120a8 8 0 0 1 -8-8v-40a8 8 0 0 1 16 0v40a8 8 0 0 1 -8 8z"
       fill="#48351b"
       id="path10" />
    <path
       d="m288 120a8 8 0 0 1 -8-8v-32a8 8 0 0 1 16 0v32a8 8 0 0 1 -8 8z"
       fill="#48351b"
       id="path12" />
    <path
       d="m256 328a70.9 70.9 0 0 1 -65.827-44.567 198.156 198.156 0 0 1 -14.173-73.596v-57.837l24-40h112l24 40v57.837a198.156 198.156 0 0 1 -14.173 73.6 70.9 70.9 0 0 1 -65.827 44.563z"
       fill="#fdc9a6"
       id="path14" />
    <path
       d="m232 448v-56l24-16 24 16v56z"
       fill="#fbfdff"
       id="path16" />
    <circle
       cx="256"
       cy="408"
       fill="#cbcbcb"
       r="8"
       id="circle18" />
    <path
       d="m304 184h-24a8 8 0 0 1 0-16h24a8 8 0 0 1 0 16z"
       fill="#48351b"
       id="path20" />
    <circle
       cx="290"
       cy="199.859"
       fill="#48351b"
       r="10"
       id="circle22" />
    <path
       d="m232 184h-24a8 8 0 0 1 0-16h24a8 8 0 0 1 0 16z"
       fill="#48351b"
       id="path24" />
    <circle
       cx="222"
       cy="199.859"
       fill="#48351b"
       r="10"
       id="circle26" />
    <path
       d="m264 245.859h-16a8 8 0 0 1 -8-8v-21.859a8 8 0 0 1 16 0v13.859h8a8 8 0 0 1 0 16z"
       fill="#f6bb92"
       id="path28" />
    <path
       d="m176 173.859h-11.056a20.944 20.944 0 0 0 -20.944 20.941v14.111a20.948 20.948 0 0 0 2.211 9.367 20.945 20.945 0 0 0 18.733 11.577h12.056z"
       fill="#fdc9a6"
       id="path30" />
    <path
       d="m336 173.859h11.056a20.944 20.944 0 0 1 20.944 20.941v14.111a20.948 20.948 0 0 1 -2.211 9.367 20.945 20.945 0 0 1 -18.733 11.577h-12.056z"
       fill="#fdc9a6"
       id="path32" />
    <path
       d="m72 488v-34.141a8 8 0 1 1 16 0v34.141z"
       fill="#cbcbcb"
       id="path34" />
    <path
       d="m424 488v-34.141a8 8 0 1 1 16 0v34.141z"
       fill="#cbcbcb"
       id="path36" />
    <path
       d="m144 373.859v74.141h-32v-58.141z"
       fill="#48351b"
       id="path38" />
    <path
       d="m368 373.859v74.141h32v-58.141z"
       fill="#48351b"
       id="path40" />
    <g
       fill="#5f4623"
       id="g50">
      <path
         d="m296 248-40-16-32 16-48-24v33.837a80 80 0 0 0 50.289 74.278 80 80 0 0 0 59.422 0 80 80 0 0 0 50.289-74.278v-33.837z"
         id="path42" />
      <path
         d="m232 304v30.15c-1.92-.6-3.83-1.28-5.71-2.03a79.536 79.536 0 0 1 -10.29-5v-23.12a8 8 0 0 1 16 0z"
         id="path44" />
      <path
         d="m264 312v25.43a78.254 78.254 0 0 1 -16 0v-25.43a8 8 0 0 1 16 0z"
         id="path46" />
      <path
         d="m296 304v23.12a79.536 79.536 0 0 1 -10.29 5c-1.88.75-3.79 1.43-5.71 2.03v-30.15a8 8 0 0 1 16 0z"
         id="path48" />
    </g>
    <path
       d="m400 448 8 40h-304l8-40z"
       fill="#8f6934"
       id="path52" />
    <path
       d="m232 304v30.15c-1.92-.6-3.83-1.28-5.71-2.03a79.536 79.536 0 0 1 -10.29-5v-23.12a8 8 0 0 1 16 0z"
       fill="#48351b"
       id="path54" />
    <path
       d="m264 312v25.43a78.254 78.254 0 0 1 -16 0v-25.43a8 8 0 0 1 16 0z"
       fill="#48351b"
       id="path56" />
    <path
       d="m296 304v23.12a79.536 79.536 0 0 1 -10.29 5c-1.88.75-3.79 1.43-5.71 2.03v-30.15a8 8 0 0 1 16 0z"
       fill="#48351b"
       id="path58" />
    <path
       d="m272 280h-32a8 8 0 0 1 0-16h32a8 8 0 0 1 0 16z"
       fill="#f6bb92"
       id="path60" />
    <path
       d="m208 344 48 32-56 40-16.535-57.873z"
       fill="#cbcbcb"
       id="path62" />
    <path
       d="m304 344-48 32 56 40 16.535-57.873z"
       fill="#cbcbcb"
       id="path64" />
  </g>
</svg>
