<?xml version="1.0" encoding="UTF-8" standalone="no"?>
<!-- Generator: Adobe Illustrator 19.0.0, SVG Export Plug-In . SVG Version: 6.00 Build 0)  -->

<svg
   xmlns:dc="http://purl.org/dc/elements/1.1/"
   xmlns:cc="http://creativecommons.org/ns#"
   xmlns:rdf="http://www.w3.org/1999/02/22-rdf-syntax-ns#"
   xmlns:svg="http://www.w3.org/2000/svg"
   xmlns="http://www.w3.org/2000/svg"
   xmlns:sodipodi="http://sodipodi.sourceforge.net/DTD/sodipodi-0.dtd"
   xmlns:inkscape="http://www.inkscape.org/namespaces/inkscape"
   version="1.1"
   id="Capa_1"
   x="0px"
   y="0px"
   viewBox="0 0 512 512"
   style="enable-background:new 0 0 512 512;"
   xml:space="preserve"
   sodipodi:docname="993687.svg"
   inkscape:version="0.92.3 (2405546, 2018-03-11)"><metadata
   id="metadata65"><rdf:RDF><cc:Work
       rdf:about=""><dc:format>image/svg+xml</dc:format><dc:type
         rdf:resource="http://purl.org/dc/dcmitype/StillImage" /></cc:Work></rdf:RDF></metadata><defs
   id="defs63" /><sodipodi:namedview
   pagecolor="#ffffff"
   bordercolor="#666666"
   borderopacity="1"
   objecttolerance="10"
   gridtolerance="10"
   guidetolerance="10"
   inkscape:pageopacity="0"
   inkscape:pageshadow="2"
   inkscape:window-width="1853"
   inkscape:window-height="1016"
   id="namedview61"
   showgrid="false"
   inkscape:zoom="0.51157043"
   inkscape:cx="-481.80045"
   inkscape:cy="527.09308"
   inkscape:window-x="67"
   inkscape:window-y="27"
   inkscape:window-maximized="1"
   inkscape:current-layer="Capa_1" />
<rect
   style="opacity:1;fill:none;fill-opacity:1;stroke:#000001;stroke-width:2.5620501;stroke-linecap:round;stroke-miterlimit:4;stroke-dasharray:7.68615104, 7.68615104000000038;stroke-dashoffset:0;stroke-opacity:0.97071078"
   id="rect872"
   width="512.12415"
   height="512.12408"
   x="-0.2348887"
   y="0.15884845"
   inkscape:export-xdpi="8.9530277"
   inkscape:export-ydpi="8.9530277" /><g
   id="g6"
   style="fill:#59360b;fill-opacity:1"
   inkscape:export-xdpi="8.9530277"
   inkscape:export-ydpi="8.9530277">
	<path
   style="fill:#59360b;fill-opacity:1"
   d="M375.251,324.267l47.582-12.928c9.361-1.877,18.475,4.19,20.352,13.559   c0.222,1.118,0.341,2.261,0.333,3.396l0,0c0,7.723-5.12,14.498-12.544,16.623l-62.123,16.324l-20.625,36.267l90.035-21.487   c23.057-5.316,39.39-25.847,39.39-49.51l0,0c0-28.066-22.758-50.816-50.816-50.816c-5.461,0-10.889,0.879-16.068,2.611   l-35.516,11.827V324.267z"
   id="path2" />
	<path
   style="fill:#59360b;fill-opacity:1"
   d="M33.918,452.267h392.533l0,0l0,0c0,28.279-22.921,51.2-51.2,51.2l0,0H85.118   C56.838,503.467,33.918,480.546,33.918,452.267L33.918,452.267L33.918,452.267L33.918,452.267z"
   id="path4" />
</g>
<path
   style="fill:#68160d;fill-opacity:1"
   d="M59.518,256v25.6c-0.017,70.63,37.948,135.825,99.388,170.667h142.558  c61.44-34.842,99.405-100.036,99.388-170.667V256H59.518z"
   id="path8"
   inkscape:export-xdpi="8.9530277"
   inkscape:export-ydpi="8.9530277" />
<path
   style="fill:#962c21;fill-opacity:1"
   d="M315.518,256v25.6c0.017,70.63-37.948,135.825-99.388,170.667h85.333  c61.44-34.842,99.405-100.036,99.388-170.667V256H315.518z"
   id="path10"
   inkscape:export-xdpi="8.9530277"
   inkscape:export-ydpi="8.9530277" />
<path
   style="fill:#F0E4D6;"
   d="M341.118,0v8.533c0,18.85,15.283,34.133,34.133,34.133h4.267c30.635,0,55.467,24.832,55.467,55.467  l0,0c0,30.635-24.832,55.467-55.467,55.467h-38.4c-11.785,0-21.333,9.549-21.333,21.333l0,0c0,11.785,9.549,21.333,21.333,21.333  l0,0c18.85,0,34.133,15.283,34.133,34.133H85.118c0-56.55,45.85-102.4,102.4-102.4h93.867c18.85,0,34.133-15.283,34.133-34.133l0,0  c0-18.85-15.283-34.133-34.133-34.133l0,0c-18.85,0-34.133-15.283-34.133-34.133V0H341.118z"
   id="path12"
   inkscape:export-xdpi="8.9530277"
   inkscape:export-ydpi="8.9530277" />
<g
   id="g18"
   inkscape:export-xdpi="8.9530277"
   inkscape:export-ydpi="8.9530277">
	<path
   style="fill:#F77A6D;"
   d="M130.984,390.665c-25.139-20.122-36.361-50.842-41.335-73.062l16.649-3.738   c4.386,19.558,14.071,46.447,35.354,63.471L130.984,390.665z"
   id="path14" />
	<path
   style="fill:#F77A6D;"
   d="M86.509,299.75c-0.811-6.016-1.28-12.075-1.391-18.15h17.067c0.119,5.35,0.538,10.692,1.254,15.991   L86.509,299.75z"
   id="path16" />
</g>

<path
   d="M76.584,230.4h17.067c0.06-51.814,42.052-93.807,93.867-93.867h93.867c23.561,0,42.667-19.106,42.667-42.667  S304.945,51.2,281.384,51.2c-14.14,0-25.6-11.46-25.6-25.6V0h-17.067v25.6c0.026,23.552,19.115,42.641,42.667,42.667  c14.14,0,25.6,11.46,25.6,25.6s-11.46,25.6-25.6,25.6h-93.867C126.283,119.535,76.653,169.165,76.584,230.4z"
   id="path22"
   inkscape:export-xdpi="8.9530277"
   inkscape:export-ydpi="8.9530277" />
<path
   d="M341.118,162.133h38.4c35.345,0,64-28.655,64-64s-28.655-64-64-64h-4.267c-14.14,0-25.6-11.46-25.6-25.6V0h-17.067v8.533  c0,23.561,19.106,42.667,42.667,42.667h4.267c25.924,0,46.933,21.009,46.933,46.933s-21.009,46.933-46.933,46.933h-38.4  c-16.495,0-29.867,13.372-29.867,29.867s13.372,29.867,29.867,29.867l0,0c14.14,0,25.6,11.46,25.6,25.6h17.067  c-0.026-23.552-19.115-42.641-42.667-42.667c-7.066,0-12.8-5.734-12.8-12.8C328.318,167.868,334.044,162.133,341.118,162.133z"
   id="path24"
   inkscape:export-xdpi="8.9530277"
   inkscape:export-ydpi="8.9530277" />


<g
   id="g30">
</g>
<g
   id="g32">
</g>
<g
   id="g34">
</g>
<g
   id="g36">
</g>
<g
   id="g38">
</g>
<g
   id="g40">
</g>
<g
   id="g42">
</g>
<g
   id="g44">
</g>
<g
   id="g46">
</g>
<g
   id="g48">
</g>
<g
   id="g50">
</g>
<g
   id="g52">
</g>
<g
   id="g54">
</g>
<g
   id="g56">
</g>
<g
   id="g58">
</g>
<path
   id="path934"
   d="m 61.518,288 v 25.6 c 37.12354,74.53953 55.49565,109.6893 97.388,138.667 H 301.464 C 349.22064,423.2893 369.266,368.213 398.852,313.6 V 288 Z"
   style="fill:#ca741f;fill-opacity:1"
   inkscape:connector-curvature="0"
   sodipodi:nodetypes="ccccccc"
   inkscape:export-xdpi="8.9530277"
   inkscape:export-ydpi="8.9530277" /><path
   d="m 371.266,400.213 68.907,-15.906 c 31.983,-7.125 52.13,-38.818 45.013,-70.801 -7.125,-31.983 -38.818,-52.13 -70.801,-45.013 -1.69,0.375 -3.354,0.828 -5.001,1.348 V 256 c 0,-4.71 -3.823,-8.533 -8.533,-8.533 H 59.518 c -4.71,0 -8.533,3.823 -8.533,8.533 v 25.6 c 0.111,63.479 29.585,123.341 79.829,162.133 H 33.918 c -4.71,0 -8.533,3.823 -8.533,8.533 0.043,32.973 26.761,59.691 59.733,59.733 h 290.133 c 32.973,-0.043 59.691,-26.761 59.733,-59.733 0,-4.71 -3.823,-8.533 -8.533,-8.533 h -96.896 c 15.966,-12.373 30.02,-27.042 41.711,-43.52 z m 33.69,-76.638 19.541,-3.908 c 4.727,-1.007 9.378,2.005 10.385,6.733 0.964,4.54 -1.775,9.045 -6.246,10.274 l -29.5,8.431 c 2.33,-7.057 4.275,-14.225 5.82,-21.495 z m 46.6,-31.411 c 18.944,13.662 23.228,40.09 9.574,59.034 -5.99,8.311 -14.805,14.165 -24.789,16.478 L 384.1,379.733 c 2.62,-4.787 5.052,-9.677 7.287,-14.66 l 41.941,-11.989 c 13.722,-3.891 21.683,-18.167 17.792,-31.889 -3.686,-12.979 -16.734,-20.932 -29.961,-18.261 l -13.286,2.654 c 0.708,-5.879 1.118,-11.819 1.297,-17.801 l 4.267,-1.425 c 12.902,-4.369 27.119,-2.193 38.118,5.837 v -0.035 z M 375.251,494.933 H 85.118 C 64.851,494.907 47.384,480.657 43.305,460.8 h 373.76 c -4.08,19.857 -21.547,34.108 -41.814,34.133 z m -76.075,-51.2 H 161.192 C 103.601,410.018 68.162,348.33 68.051,281.6 V 264.533 H 392.318 V 281.6 c -0.111,66.731 -35.55,128.418 -93.142,162.133 z"
   id="path20"
   style="fill:#891d11;fill-opacity:1"
   inkscape:connector-curvature="0"
   inkscape:export-xdpi="8.9530277"
   inkscape:export-ydpi="8.9530277" /><path
   d="M106.297,313.865l-16.649,3.738c4.975,22.187,16.213,52.907,41.335,73.062l10.667-13.329  C120.369,360.311,110.718,333.423,106.297,313.865z"
   id="path26"
   inkscape:export-xdpi="8.9530277"
   inkscape:export-ydpi="8.9530277" /><path
   d="M102.184,281.6H85.118c0.111,6.076,0.58,12.134,1.391,18.15l16.93-2.167C102.722,292.284,102.304,286.95,102.184,281.6z"
   id="path28"
   inkscape:export-xdpi="8.9530277"
   inkscape:export-ydpi="8.9530277" /><rect
   y="0.15884845"
   x="-540.23486"
   height="512.12408"
   width="512.12415"
   id="rect938"
   style="opacity:1;fill:none;fill-opacity:1;stroke:#000001;stroke-width:2.5620501;stroke-linecap:round;stroke-miterlimit:4;stroke-dasharray:7.68615104, 7.68615104;stroke-dashoffset:0;stroke-opacity:0.97071078"
   inkscape:export-xdpi="8.9530277"
   inkscape:export-ydpi="8.9530277" /><g
   style="fill:#59360b;fill-opacity:1"
   id="g944"
   transform="translate(-540)"
   inkscape:export-xdpi="8.9530277"
   inkscape:export-ydpi="8.9530277">
	<path
   id="path940"
   d="m 375.251,324.267 47.582,-12.928 c 9.361,-1.877 18.475,4.19 20.352,13.559 0.222,1.118 0.341,2.261 0.333,3.396 v 0 c 0,7.723 -5.12,14.498 -12.544,16.623 l -62.123,16.324 -20.625,36.267 90.035,-21.487 c 23.057,-5.316 39.39,-25.847 39.39,-49.51 v 0 c 0,-28.066 -22.758,-50.816 -50.816,-50.816 -5.461,0 -10.889,0.879 -16.068,2.611 l -35.516,11.827 z"
   style="fill:#59360b;fill-opacity:1"
   inkscape:connector-curvature="0" />
	<path
   id="path942"
   d="m 33.918,452.267 h 392.533 v 0 0 c 0,28.279 -22.921,51.2 -51.2,51.2 v 0 H 85.118 c -28.28,0 -51.2,-22.921 -51.2,-51.2 z"
   style="fill:#59360b;fill-opacity:1"
   inkscape:connector-curvature="0" />
</g><path
   id="path946"
   d="m -480.482,256 v 25.6 c -0.017,70.63 37.948,135.825 99.388,170.667 h 142.558 c 61.44,-34.842 99.405,-100.036 99.388,-170.667 V 256 Z"
   style="fill:#68160d;fill-opacity:1"
   inkscape:connector-curvature="0"
   inkscape:export-xdpi="8.9530277"
   inkscape:export-ydpi="8.9530277" /><path
   id="path948"
   d="m -224.482,256 v 25.6 c 0.017,70.63 -37.948,135.825 -99.388,170.667 h 85.333 c 61.44,-34.842 99.405,-100.036 99.388,-170.667 V 256 Z"
   style="fill:#962c21;fill-opacity:1"
   inkscape:connector-curvature="0"
   inkscape:export-xdpi="8.9530277"
   inkscape:export-ydpi="8.9530277" /><g
   id="g956"
   transform="translate(-540)"
   inkscape:export-xdpi="8.9530277"
   inkscape:export-ydpi="8.9530277">
	<path
   id="path952"
   d="M 130.984,390.665 C 105.845,370.543 94.623,339.823 89.649,317.603 l 16.649,-3.738 c 4.386,19.558 14.071,46.447 35.354,63.471 z"
   style="fill:#f77a6d"
   inkscape:connector-curvature="0" />
	<path
   id="path954"
   d="m 86.509,299.75 c -0.811,-6.016 -1.28,-12.075 -1.391,-18.15 h 17.067 c 0.119,5.35 0.538,10.692 1.254,15.991 z"
   style="fill:#f77a6d"
   inkscape:connector-curvature="0" />
</g><path
   sodipodi:nodetypes="ccccccc"
   inkscape:connector-curvature="0"
   style="fill:#ca741f;fill-opacity:1"
   d="m -478.482,288 v 25.6 c 37.12354,74.53953 55.49565,109.6893 97.388,138.667 h 142.558 c 47.75664,-28.9777 67.802,-84.054 97.388,-138.667 V 288 Z"
   id="path962"
   inkscape:export-xdpi="8.9530277"
   inkscape:export-ydpi="8.9530277" /><path
   inkscape:connector-curvature="0"
   style="fill:#891d11;fill-opacity:1"
   id="path964"
   d="m -168.734,400.213 68.907,-15.906 c 31.983,-7.125 52.13,-38.818 45.013,-70.801 -7.125,-31.983 -38.818,-52.13 -70.801,-45.013 -1.69,0.375 -3.354,0.828 -5.001,1.348 V 256 c 0,-4.71 -3.823,-8.533 -8.533,-8.533 h -341.333 c -4.71,0 -8.533,3.823 -8.533,8.533 v 25.6 c 0.111,63.479 29.585,123.341 79.829,162.133 h -96.896 c -4.71,0 -8.533,3.823 -8.533,8.533 0.043,32.973 26.761,59.691 59.733,59.733 h 290.133 c 32.973,-0.043 59.691,-26.761 59.733,-59.733 0,-4.71 -3.823,-8.533 -8.533,-8.533 h -96.896 c 15.966,-12.373 30.02,-27.042 41.711,-43.52 z m 33.69,-76.638 19.541,-3.908 c 4.727,-1.007 9.378,2.005 10.385,6.733 0.964,4.54 -1.775,9.045 -6.246,10.274 l -29.5,8.431 c 2.33,-7.057 4.275,-14.225 5.82,-21.495 z m 46.6,-31.411 c 18.944,13.662 23.228,40.09 9.574,59.034 -5.99,8.311 -14.805,14.165 -24.789,16.478 l -52.241,12.057 c 2.62,-4.787 5.052,-9.677 7.287,-14.66 l 41.941,-11.989 c 13.722,-3.891 21.683,-18.167 17.792,-31.889 -3.686,-12.979 -16.734,-20.932 -29.961,-18.261 l -13.286,2.654 c 0.708,-5.879 1.118,-11.819 1.297,-17.801 l 4.267,-1.425 c 12.902,-4.369 27.119,-2.193 38.118,5.837 v -0.035 z m -76.305,202.769 h -290.133 c -20.267,-0.026 -37.734,-14.276 -41.813,-34.133 h 373.76 c -4.08,19.857 -21.547,34.108 -41.814,34.133 z m -76.075,-51.2 h -137.984 c -57.591,-33.715 -93.03,-95.403 -93.141,-162.133 v -17.067 h 324.267 V 281.6 c -0.111,66.731 -35.55,128.418 -93.142,162.133 z"
   inkscape:export-xdpi="8.9530277"
   inkscape:export-ydpi="8.9530277" /><path
   id="path966"
   d="m -433.703,313.865 -16.649,3.738 c 4.975,22.187 16.213,52.907 41.335,73.062 l 10.667,-13.329 c -21.281,-17.025 -30.932,-43.913 -35.353,-63.471 z"
   inkscape:connector-curvature="0"
   inkscape:export-xdpi="8.9530277"
   inkscape:export-ydpi="8.9530277" /><path
   id="path968"
   d="m -437.816,281.6 h -17.066 c 0.111,6.076 0.58,12.134 1.391,18.15 l 16.93,-2.167 c -0.717,-5.299 -1.135,-10.633 -1.255,-15.983 z"
   inkscape:connector-curvature="0"
   inkscape:export-xdpi="8.9530277"
   inkscape:export-ydpi="8.9530277" /><rect
   style="opacity:1;fill:none;fill-opacity:1;stroke:#000001;stroke-width:2.5620501;stroke-linecap:round;stroke-miterlimit:4;stroke-dasharray:7.68615104, 7.68615104;stroke-dashoffset:0;stroke-opacity:0.97071078"
   id="rect970"
   width="512.12415"
   height="512.12408"
   x="-1080.2349"
   y="0.15884845"
   inkscape:export-xdpi="8.9530277"
   inkscape:export-ydpi="8.9530277" /><g
   transform="translate(-1080)"
   id="g976"
   style="fill:#59360b;fill-opacity:1"
   inkscape:export-xdpi="8.9530277"
   inkscape:export-ydpi="8.9530277">
	<path
   inkscape:connector-curvature="0"
   style="fill:#59360b;fill-opacity:1"
   d="m 375.251,324.267 47.582,-12.928 c 9.361,-1.877 18.475,4.19 20.352,13.559 0.222,1.118 0.341,2.261 0.333,3.396 v 0 c 0,7.723 -5.12,14.498 -12.544,16.623 l -62.123,16.324 -20.625,36.267 90.035,-21.487 c 23.057,-5.316 39.39,-25.847 39.39,-49.51 v 0 c 0,-28.066 -22.758,-50.816 -50.816,-50.816 -5.461,0 -10.889,0.879 -16.068,2.611 l -35.516,11.827 z"
   id="path972" />
	<path
   inkscape:connector-curvature="0"
   style="fill:#59360b;fill-opacity:1"
   d="m 33.918,452.267 h 392.533 v 0 0 c 0,28.279 -22.921,51.2 -51.2,51.2 v 0 H 85.118 c -28.28,0 -51.2,-22.921 -51.2,-51.2 z"
   id="path974" />
</g><path
   inkscape:connector-curvature="0"
   style="fill:#68160d;fill-opacity:1"
   d="m -1020.482,256 v 25.6 c -0.017,70.63 37.948,135.825 99.388,170.667 h 142.558 c 61.44,-34.842 99.405,-100.036 99.388,-170.667 V 256 Z"
   id="path978"
   inkscape:export-xdpi="8.9530277"
   inkscape:export-ydpi="8.9530277" /><path
   inkscape:connector-curvature="0"
   style="fill:#962c21;fill-opacity:1"
   d="m -764.482,256 v 25.6 c 0.017,70.63 -37.948,135.825 -99.388,170.667 h 85.333 c 61.44,-34.842 99.405,-100.036 99.388,-170.667 V 256 Z"
   id="path980"
   inkscape:export-xdpi="8.9530277"
   inkscape:export-ydpi="8.9530277" /><g
   transform="translate(-1080)"
   id="g986"
   inkscape:export-xdpi="8.9530277"
   inkscape:export-ydpi="8.9530277">
	<path
   inkscape:connector-curvature="0"
   style="fill:#f77a6d"
   d="M 130.984,390.665 C 105.845,370.543 94.623,339.823 89.649,317.603 l 16.649,-3.738 c 4.386,19.558 14.071,46.447 35.354,63.471 z"
   id="path982" />
	<path
   inkscape:connector-curvature="0"
   style="fill:#f77a6d"
   d="m 86.509,299.75 c -0.811,-6.016 -1.28,-12.075 -1.391,-18.15 h 17.067 c 0.119,5.35 0.538,10.692 1.254,15.991 z"
   id="path984" />
</g><path
   d="m -708.734,400.213 68.907,-15.906 c 31.983,-7.125 52.13,-38.818 45.013,-70.801 -7.125,-31.983 -38.818,-52.13 -70.801,-45.013 -1.69,0.375 -3.354,0.828 -5.001,1.348 V 256 c 0,-4.71 -3.823,-8.533 -8.533,-8.533 h -341.333 c -4.71,0 -8.533,3.823 -8.533,8.533 v 25.6 c 0.111,63.479 29.585,123.341 79.829,162.133 h -96.896 c -4.71,0 -8.533,3.823 -8.533,8.533 0.043,32.973 26.761,59.691 59.733,59.733 h 290.133 c 32.973,-0.043 59.691,-26.761 59.733,-59.733 0,-4.71 -3.823,-8.533 -8.533,-8.533 h -96.896 c 15.966,-12.373 30.02,-27.042 41.711,-43.52 z m 33.69,-76.638 19.541,-3.908 c 4.727,-1.007 9.378,2.005 10.385,6.733 0.964,4.54 -1.775,9.045 -6.246,10.274 l -29.5,8.431 c 2.33,-7.057 4.275,-14.225 5.82,-21.495 z m 46.6,-31.411 c 18.944,13.662 23.228,40.09 9.574,59.034 -5.99,8.311 -14.805,14.165 -24.789,16.478 l -52.241,12.057 c 2.62,-4.787 5.052,-9.677 7.287,-14.66 l 41.941,-11.989 c 13.722,-3.891 21.683,-18.167 17.792,-31.889 -3.686,-12.979 -16.734,-20.932 -29.961,-18.261 l -13.286,2.654 c 0.708,-5.879 1.118,-11.819 1.297,-17.801 l 4.267,-1.425 c 12.902,-4.369 27.119,-2.193 38.118,5.837 v -0.035 z m -76.305,202.769 h -290.133 c -20.267,-0.026 -37.734,-14.276 -41.813,-34.133 h 373.76 c -4.08,19.857 -21.547,34.108 -41.814,34.133 z m -76.075,-51.2 h -137.984 c -57.591,-33.715 -93.03,-95.403 -93.141,-162.133 v -17.067 h 324.267 V 281.6 c -0.111,66.731 -35.55,128.418 -93.142,162.133 z"
   id="path990"
   style="fill:#891d11;fill-opacity:1"
   inkscape:connector-curvature="0"
   inkscape:export-xdpi="8.9530277"
   inkscape:export-ydpi="8.9530277" /><path
   inkscape:connector-curvature="0"
   d="m -973.703,313.865 -16.649,3.738 c 4.975,22.187 16.213,52.907 41.335,73.062 l 10.667,-13.329 c -21.281,-17.025 -30.932,-43.913 -35.353,-63.471 z"
   id="path992"
   inkscape:export-xdpi="8.9530277"
   inkscape:export-ydpi="8.9530277" /><path
   inkscape:connector-curvature="0"
   d="m -977.816,281.6 h -17.066 c 0.111,6.076 0.58,12.134 1.391,18.15 l 16.93,-2.167 c -0.717,-5.299 -1.135,-10.633 -1.255,-15.983 z"
   id="path994"
   inkscape:export-xdpi="8.9530277"
   inkscape:export-ydpi="8.9530277" /></svg>