<?xml version="1.0" encoding="UTF-8" standalone="no"?>
<!-- Generator: Adobe Illustrator 19.0.0, SVG Export Plug-In . SVG Version: 6.00 Build 0)  -->

<svg
   xmlns:dc="http://purl.org/dc/elements/1.1/"
   xmlns:cc="http://creativecommons.org/ns#"
   xmlns:rdf="http://www.w3.org/1999/02/22-rdf-syntax-ns#"
   xmlns:svg="http://www.w3.org/2000/svg"
   xmlns="http://www.w3.org/2000/svg"
   xmlns:sodipodi="http://sodipodi.sourceforge.net/DTD/sodipodi-0.dtd"
   xmlns:inkscape="http://www.inkscape.org/namespaces/inkscape"
   version="1.1"
   id="Capa_1"
   x="0px"
   y="0px"
   viewBox="0 0 512 512"
   style="enable-background:new 0 0 512 512;"
   xml:space="preserve"
   sodipodi:docname="993687.svg"
   inkscape:version="0.92.5 (2060ec1f9f, 2020-04-08)"><metadata
   id="metadata65"><rdf:RDF><cc:Work
       rdf:about=""><dc:format>image/svg+xml</dc:format><dc:type
         rdf:resource="http://purl.org/dc/dcmitype/StillImage" /></cc:Work></rdf:RDF></metadata><defs
   id="defs63" /><sodipodi:namedview
   pagecolor="#ffffff"
   bordercolor="#666666"
   borderopacity="1"
   objecttolerance="10"
   gridtolerance="10"
   guidetolerance="10"
   inkscape:pageopacity="0"
   inkscape:pageshadow="2"
   inkscape:window-width="1848"
   inkscape:window-height="1016"
   id="namedview61"
   showgrid="false"
   inkscape:zoom="0.12789261"
   inkscape:cx="-2598.5243"
   inkscape:cy="1248.6118"
   inkscape:window-x="72"
   inkscape:window-y="27"
   inkscape:window-maximized="1"
   inkscape:current-layer="Capa_1" />
<rect
   style="opacity:1;fill:none;fill-opacity:1;stroke:#000001;stroke-width:2.5620501;stroke-linecap:round;stroke-miterlimit:4;stroke-dasharray:7.68615104, 7.68615104000000038;stroke-dashoffset:0;stroke-opacity:0.97071078"
   id="rect872"
   width="512.12415"
   height="512.12408"
   x="-0.2348887"
   y="0.15884845"
   inkscape:export-xdpi="8.9530277"
   inkscape:export-ydpi="8.9530277" />


<path
   style="fill:#F0E4D6;"
   d="M341.118,0v8.533c0,18.85,15.283,34.133,34.133,34.133h4.267c30.635,0,55.467,24.832,55.467,55.467  l0,0c0,30.635-24.832,55.467-55.467,55.467h-38.4c-11.785,0-21.333,9.549-21.333,21.333l0,0c0,11.785,9.549,21.333,21.333,21.333  l0,0c18.85,0,34.133,15.283,34.133,34.133H85.118c0-56.55,45.85-102.4,102.4-102.4h93.867c18.85,0,34.133-15.283,34.133-34.133l0,0  c0-18.85-15.283-34.133-34.133-34.133l0,0c-18.85,0-34.133-15.283-34.133-34.133V0H341.118z"
   id="path12"
   inkscape:export-xdpi="8.9530277"
   inkscape:export-ydpi="8.9530277" />


<path
   d="M76.584,230.4h17.067c0.06-51.814,42.052-93.807,93.867-93.867h93.867c23.561,0,42.667-19.106,42.667-42.667  S304.945,51.2,281.384,51.2c-14.14,0-25.6-11.46-25.6-25.6V0h-17.067v25.6c0.026,23.552,19.115,42.641,42.667,42.667  c14.14,0,25.6,11.46,25.6,25.6s-11.46,25.6-25.6,25.6h-93.867C126.283,119.535,76.653,169.165,76.584,230.4z"
   id="path22"
   inkscape:export-xdpi="8.9530277"
   inkscape:export-ydpi="8.9530277" />
<path
   d="M341.118,162.133h38.4c35.345,0,64-28.655,64-64s-28.655-64-64-64h-4.267c-14.14,0-25.6-11.46-25.6-25.6V0h-17.067v8.533  c0,23.561,19.106,42.667,42.667,42.667h4.267c25.924,0,46.933,21.009,46.933,46.933s-21.009,46.933-46.933,46.933h-38.4  c-16.495,0-29.867,13.372-29.867,29.867s13.372,29.867,29.867,29.867l0,0c14.14,0,25.6,11.46,25.6,25.6h17.067  c-0.026-23.552-19.115-42.641-42.667-42.667c-7.066,0-12.8-5.734-12.8-12.8C328.318,167.868,334.044,162.133,341.118,162.133z"
   id="path24"
   inkscape:export-xdpi="8.9530277"
   inkscape:export-ydpi="8.9530277" />


<g
   id="g30">
</g>
<g
   id="g32">
</g>
<g
   id="g34">
</g>
<g
   id="g36">
</g>
<g
   id="g38">
</g>
<g
   id="g40">
</g>
<g
   id="g42">
</g>
<g
   id="g44">
</g>
<g
   id="g46">
</g>
<g
   id="g48">
</g>
<g
   id="g50">
</g>
<g
   id="g52">
</g>
<g
   id="g54">
</g>
<g
   id="g56">
</g>
<g
   id="g58">
</g>
<rect
   y="0.15884845"
   x="-540.23486"
   height="512.12408"
   width="512.12415"
   id="rect938"
   style="opacity:1;fill:none;fill-opacity:1;stroke:#000001;stroke-width:2.5620501;stroke-linecap:round;stroke-miterlimit:4;stroke-dasharray:7.68615104, 7.68615104;stroke-dashoffset:0;stroke-opacity:0.97071078"
   inkscape:export-xdpi="8.9530277"
   inkscape:export-ydpi="8.9530277" /><g
   style="fill:#59360b;fill-opacity:1"
   id="g944"
   transform="translate(-540)"
   inkscape:export-xdpi="8.9530277"
   inkscape:export-ydpi="8.9530277">
	<path
   id="path940"
   d="m 375.251,324.267 47.582,-12.928 c 9.361,-1.877 18.475,4.19 20.352,13.559 0.222,1.118 0.341,2.261 0.333,3.396 v 0 c 0,7.723 -5.12,14.498 -12.544,16.623 l -62.123,16.324 -20.625,36.267 90.035,-21.487 c 23.057,-5.316 39.39,-25.847 39.39,-49.51 v 0 c 0,-28.066 -22.758,-50.816 -50.816,-50.816 -5.461,0 -10.889,0.879 -16.068,2.611 l -35.516,11.827 z"
   style="fill:#59360b;fill-opacity:1"
   inkscape:connector-curvature="0" />
	<path
   id="path942"
   d="m 33.918,452.267 h 392.533 v 0 0 c 0,28.279 -22.921,51.2 -51.2,51.2 v 0 H 85.118 c -28.28,0 -51.2,-22.921 -51.2,-51.2 z"
   style="fill:#59360b;fill-opacity:1"
   inkscape:connector-curvature="0" />
</g><path
   id="path946"
   d="m -480.482,256 v 25.6 c -0.017,70.63 37.948,135.825 99.388,170.667 h 142.558 c 61.44,-34.842 99.405,-100.036 99.388,-170.667 V 256 Z"
   style="fill:#68160d;fill-opacity:1"
   inkscape:connector-curvature="0"
   inkscape:export-xdpi="8.9530277"
   inkscape:export-ydpi="8.9530277" /><path
   id="path948"
   d="m -224.482,256 v 25.6 c 0.017,70.63 -37.948,135.825 -99.388,170.667 h 85.333 c 61.44,-34.842 99.405,-100.036 99.388,-170.667 V 256 Z"
   style="fill:#962c21;fill-opacity:1"
   inkscape:connector-curvature="0"
   inkscape:export-xdpi="8.9530277"
   inkscape:export-ydpi="8.9530277" /><g
   id="g956"
   transform="translate(-540)"
   inkscape:export-xdpi="8.9530277"
   inkscape:export-ydpi="8.9530277">
	<path
   id="path952"
   d="M 130.984,390.665 C 105.845,370.543 94.623,339.823 89.649,317.603 l 16.649,-3.738 c 4.386,19.558 14.071,46.447 35.354,63.471 z"
   style="fill:#f77a6d"
   inkscape:connector-curvature="0" />
	<path
   id="path954"
   d="m 86.509,299.75 c -0.811,-6.016 -1.28,-12.075 -1.391,-18.15 h 17.067 c 0.119,5.35 0.538,10.692 1.254,15.991 z"
   style="fill:#f77a6d"
   inkscape:connector-curvature="0" />
</g><path
   sodipodi:nodetypes="ccccccc"
   inkscape:connector-curvature="0"
   style="fill:#ca741f;fill-opacity:1"
   d="m -478.482,288 v 25.6 c 37.12354,74.53953 55.49565,109.6893 97.388,138.667 h 142.558 c 47.75664,-28.9777 67.802,-84.054 97.388,-138.667 V 288 Z"
   id="path962"
   inkscape:export-xdpi="8.9530277"
   inkscape:export-ydpi="8.9530277" /><path
   inkscape:connector-curvature="0"
   style="fill:#891d11;fill-opacity:1"
   id="path964"
   d="m -168.734,400.213 68.907,-15.906 c 31.983,-7.125 52.13,-38.818 45.013,-70.801 -7.125,-31.983 -38.818,-52.13 -70.801,-45.013 -1.69,0.375 -3.354,0.828 -5.001,1.348 V 256 c 0,-4.71 -3.823,-8.533 -8.533,-8.533 h -341.333 c -4.71,0 -8.533,3.823 -8.533,8.533 v 25.6 c 0.111,63.479 29.585,123.341 79.829,162.133 h -96.896 c -4.71,0 -8.533,3.823 -8.533,8.533 0.043,32.973 26.761,59.691 59.733,59.733 h 290.133 c 32.973,-0.043 59.691,-26.761 59.733,-59.733 0,-4.71 -3.823,-8.533 -8.533,-8.533 h -96.896 c 15.966,-12.373 30.02,-27.042 41.711,-43.52 z m 33.69,-76.638 19.541,-3.908 c 4.727,-1.007 9.378,2.005 10.385,6.733 0.964,4.54 -1.775,9.045 -6.246,10.274 l -29.5,8.431 c 2.33,-7.057 4.275,-14.225 5.82,-21.495 z m 46.6,-31.411 c 18.944,13.662 23.228,40.09 9.574,59.034 -5.99,8.311 -14.805,14.165 -24.789,16.478 l -52.241,12.057 c 2.62,-4.787 5.052,-9.677 7.287,-14.66 l 41.941,-11.989 c 13.722,-3.891 21.683,-18.167 17.792,-31.889 -3.686,-12.979 -16.734,-20.932 -29.961,-18.261 l -13.286,2.654 c 0.708,-5.879 1.118,-11.819 1.297,-17.801 l 4.267,-1.425 c 12.902,-4.369 27.119,-2.193 38.118,5.837 v -0.035 z m -76.305,202.769 h -290.133 c -20.267,-0.026 -37.734,-14.276 -41.813,-34.133 h 373.76 c -4.08,19.857 -21.547,34.108 -41.814,34.133 z m -76.075,-51.2 h -137.984 c -57.591,-33.715 -93.03,-95.403 -93.141,-162.133 v -17.067 h 324.267 V 281.6 c -0.111,66.731 -35.55,128.418 -93.142,162.133 z"
   inkscape:export-xdpi="8.9530277"
   inkscape:export-ydpi="8.9530277" /><path
   id="path966"
   d="m -433.703,313.865 -16.649,3.738 c 4.975,22.187 16.213,52.907 41.335,73.062 l 10.667,-13.329 c -21.281,-17.025 -30.932,-43.913 -35.353,-63.471 z"
   inkscape:connector-curvature="0"
   inkscape:export-xdpi="8.9530277"
   inkscape:export-ydpi="8.9530277" /><path
   id="path968"
   d="m -437.816,281.6 h -17.066 c 0.111,6.076 0.58,12.134 1.391,18.15 l 16.93,-2.167 c -0.717,-5.299 -1.135,-10.633 -1.255,-15.983 z"
   inkscape:connector-curvature="0"
   inkscape:export-xdpi="8.9530277"
   inkscape:export-ydpi="8.9530277" /><rect
   style="opacity:1;fill:none;fill-opacity:1;stroke:#000001;stroke-width:2.5620501;stroke-linecap:round;stroke-miterlimit:4;stroke-dasharray:7.68615104, 7.68615104;stroke-dashoffset:0;stroke-opacity:0.97071078"
   id="rect970"
   width="512.12415"
   height="512.12408"
   x="-1080.2349"
   y="0.15884845"
   inkscape:export-xdpi="8.9530277"
   inkscape:export-ydpi="8.9530277" /><g
   transform="translate(-1080)"
   id="g976"
   style="fill:#59360b;fill-opacity:1"
   inkscape:export-xdpi="8.9530277"
   inkscape:export-ydpi="8.9530277">
	<path
   inkscape:connector-curvature="0"
   style="fill:#59360b;fill-opacity:1"
   d="m 375.251,324.267 47.582,-12.928 c 9.361,-1.877 18.475,4.19 20.352,13.559 0.222,1.118 0.341,2.261 0.333,3.396 v 0 c 0,7.723 -5.12,14.498 -12.544,16.623 l -62.123,16.324 -20.625,36.267 90.035,-21.487 c 23.057,-5.316 39.39,-25.847 39.39,-49.51 v 0 c 0,-28.066 -22.758,-50.816 -50.816,-50.816 -5.461,0 -10.889,0.879 -16.068,2.611 l -35.516,11.827 z"
   id="path972" />
	<path
   inkscape:connector-curvature="0"
   style="fill:#59360b;fill-opacity:1"
   d="m 33.918,452.267 h 392.533 v 0 0 c 0,28.279 -22.921,51.2 -51.2,51.2 v 0 H 85.118 c -28.28,0 -51.2,-22.921 -51.2,-51.2 z"
   id="path974" />
</g><path
   inkscape:connector-curvature="0"
   style="fill:#68160d;fill-opacity:1"
   d="m -1020.482,256 v 25.6 c -0.017,70.63 37.948,135.825 99.388,170.667 h 142.558 c 61.44,-34.842 99.405,-100.036 99.388,-170.667 V 256 Z"
   id="path978"
   inkscape:export-xdpi="8.9530277"
   inkscape:export-ydpi="8.9530277" /><path
   inkscape:connector-curvature="0"
   style="fill:#962c21;fill-opacity:1"
   d="m -764.482,256 v 25.6 c 0.017,70.63 -37.948,135.825 -99.388,170.667 h 85.333 c 61.44,-34.842 99.405,-100.036 99.388,-170.667 V 256 Z"
   id="path980"
   inkscape:export-xdpi="8.9530277"
   inkscape:export-ydpi="8.9530277" /><g
   transform="translate(-1080)"
   id="g986"
   inkscape:export-xdpi="8.9530277"
   inkscape:export-ydpi="8.9530277">
	<path
   inkscape:connector-curvature="0"
   style="fill:#f77a6d"
   d="M 130.984,390.665 C 105.845,370.543 94.623,339.823 89.649,317.603 l 16.649,-3.738 c 4.386,19.558 14.071,46.447 35.354,63.471 z"
   id="path982" />
	<path
   inkscape:connector-curvature="0"
   style="fill:#f77a6d"
   d="m 86.509,299.75 c -0.811,-6.016 -1.28,-12.075 -1.391,-18.15 h 17.067 c 0.119,5.35 0.538,10.692 1.254,15.991 z"
   id="path984" />
</g><path
   d="m -708.734,400.213 68.907,-15.906 c 31.983,-7.125 52.13,-38.818 45.013,-70.801 -7.125,-31.983 -38.818,-52.13 -70.801,-45.013 -1.69,0.375 -3.354,0.828 -5.001,1.348 V 256 c 0,-4.71 -3.823,-8.533 -8.533,-8.533 h -341.333 c -4.71,0 -8.533,3.823 -8.533,8.533 v 25.6 c 0.111,63.479 29.585,123.341 79.829,162.133 h -96.896 c -4.71,0 -8.533,3.823 -8.533,8.533 0.043,32.973 26.761,59.691 59.733,59.733 h 290.133 c 32.973,-0.043 59.691,-26.761 59.733,-59.733 0,-4.71 -3.823,-8.533 -8.533,-8.533 h -96.896 c 15.966,-12.373 30.02,-27.042 41.711,-43.52 z m 33.69,-76.638 19.541,-3.908 c 4.727,-1.007 9.378,2.005 10.385,6.733 0.964,4.54 -1.775,9.045 -6.246,10.274 l -29.5,8.431 c 2.33,-7.057 4.275,-14.225 5.82,-21.495 z m 46.6,-31.411 c 18.944,13.662 23.228,40.09 9.574,59.034 -5.99,8.311 -14.805,14.165 -24.789,16.478 l -52.241,12.057 c 2.62,-4.787 5.052,-9.677 7.287,-14.66 l 41.941,-11.989 c 13.722,-3.891 21.683,-18.167 17.792,-31.889 -3.686,-12.979 -16.734,-20.932 -29.961,-18.261 l -13.286,2.654 c 0.708,-5.879 1.118,-11.819 1.297,-17.801 l 4.267,-1.425 c 12.902,-4.369 27.119,-2.193 38.118,5.837 v -0.035 z m -76.305,202.769 h -290.133 c -20.267,-0.026 -37.734,-14.276 -41.813,-34.133 h 373.76 c -4.08,19.857 -21.547,34.108 -41.814,34.133 z m -76.075,-51.2 h -137.984 c -57.591,-33.715 -93.03,-95.403 -93.141,-162.133 v -17.067 h 324.267 V 281.6 c -0.111,66.731 -35.55,128.418 -93.142,162.133 z"
   id="path990"
   style="fill:#891d11;fill-opacity:1"
   inkscape:connector-curvature="0"
   inkscape:export-xdpi="8.9530277"
   inkscape:export-ydpi="8.9530277" /><path
   inkscape:connector-curvature="0"
   d="m -973.703,313.865 -16.649,3.738 c 4.975,22.187 16.213,52.907 41.335,73.062 l 10.667,-13.329 c -21.281,-17.025 -30.932,-43.913 -35.353,-63.471 z"
   id="path992"
   inkscape:export-xdpi="8.9530277"
   inkscape:export-ydpi="8.9530277" /><path
   inkscape:connector-curvature="0"
   d="m -977.816,281.6 h -17.066 c 0.111,6.076 0.58,12.134 1.391,18.15 l 16.93,-2.167 c -0.717,-5.299 -1.135,-10.633 -1.255,-15.983 z"
   id="path994"
   inkscape:export-xdpi="8.9530277"
   inkscape:export-ydpi="8.9530277" /><rect
   inkscape:export-ydpi="8.9527082"
   inkscape:export-xdpi="8.9527082"
   y="-539.84119"
   x="-0.2348887"
   height="512.12408"
   width="512.12415"
   id="rect867"
   style="opacity:1;fill:none;fill-opacity:1;stroke:#000001;stroke-width:2.5620501;stroke-linecap:round;stroke-miterlimit:4;stroke-dasharray:7.68615104, 7.68615104;stroke-dashoffset:0;stroke-opacity:0.97071078" /><g
   inkscape:export-ydpi="8.9527082"
   inkscape:export-xdpi="8.9527082"
   style="fill:#d98e53;fill-opacity:1"
   id="g873"
   transform="translate(0,-540)">
	<path
   inkscape:connector-curvature="0"
   id="path869"
   d="m 375.251,324.267 47.582,-12.928 c 9.361,-1.877 18.475,4.19 20.352,13.559 0.222,1.118 0.341,2.261 0.333,3.396 v 0 c 0,7.723 -5.12,14.498 -12.544,16.623 l -62.123,16.324 -20.625,36.267 90.035,-21.487 c 23.057,-5.316 39.39,-25.847 39.39,-49.51 v 0 c 0,-28.066 -22.758,-50.816 -50.816,-50.816 -5.461,0 -10.889,0.879 -16.068,2.611 l -35.516,11.827 z"
   style="fill:#d98e53;fill-opacity:1" />
	<path
   inkscape:connector-curvature="0"
   id="path871"
   d="m 33.918,452.267 h 392.533 v 0 0 c 0,28.279 -22.921,51.2 -51.2,51.2 v 0 H 85.118 c -28.28,0 -51.2,-22.921 -51.2,-51.2 z"
   style="fill:#d98e53;fill-opacity:1" />
</g><path
   inkscape:export-ydpi="8.9527082"
   inkscape:export-xdpi="8.9527082"
   id="path875"
   d="m 59.518,-284 v 25.6 c -0.017,70.63 37.948,135.825 99.388,170.667 h 142.558 c 61.44,-34.842 99.405,-100.036 99.388,-170.667 V -284 Z"
   style="fill:#d98c53;fill-opacity:1"
   inkscape:connector-curvature="0" /><path
   inkscape:export-ydpi="8.9527082"
   inkscape:export-xdpi="8.9527082"
   id="path877"
   d="m 315.518,-284 v 25.6 c 0.017,70.63 -37.948,135.825 -99.388,170.667 h 85.333 c 61.44,-34.842 99.405,-100.036 99.388,-170.667 V -284 Z"
   style="fill:#d9c653;fill-opacity:1"
   inkscape:connector-curvature="0" /><path
   inkscape:export-ydpi="8.9527082"
   inkscape:export-xdpi="8.9527082"
   id="path879"
   d="m 341.118,-540 v 8.533 c 0,18.85 15.283,34.133 34.133,34.133 h 4.267 c 30.635,0 55.467,24.832 55.467,55.467 v 0 c 0,30.635 -24.832,55.467 -55.467,55.467 h -38.4 c -11.785,0 -21.333,9.549 -21.333,21.333 v 0 c 0,11.785 9.549,21.333 21.333,21.333 v 0 c 18.85,0 34.133,15.283 34.133,34.133 H 85.118 c 0,-56.55 45.85,-102.4 102.4,-102.4 h 93.867 c 18.85,0 34.133,-15.283 34.133,-34.133 v 0 c 0,-18.85 -15.283,-34.133 -34.133,-34.133 v 0 c -18.85,0 -34.133,-15.283 -34.133,-34.133 V -540 Z"
   style="fill:#f0e4d6"
   inkscape:connector-curvature="0" /><g
   inkscape:export-ydpi="8.9527082"
   inkscape:export-xdpi="8.9527082"
   id="g885"
   transform="translate(0,-540)">
	<path
   id="path881"
   d="M 130.984,390.665 C 105.845,370.543 94.623,339.823 89.649,317.603 l 16.649,-3.738 c 4.386,19.558 14.071,46.447 35.354,63.471 z"
   style="fill:#f77a6d"
   inkscape:connector-curvature="0" />
	<path
   id="path883"
   d="m 86.509,299.75 c -0.811,-6.016 -1.28,-12.075 -1.391,-18.15 h 17.067 c 0.119,5.35 0.538,10.692 1.254,15.991 z"
   style="fill:#f77a6d"
   inkscape:connector-curvature="0" />
</g><path
   inkscape:export-ydpi="8.9527082"
   inkscape:export-xdpi="8.9527082"
   id="path887"
   d="m 76.584,-309.6 h 17.067 c 0.06,-51.814 42.052,-93.807 93.867,-93.867 h 93.867 c 23.561,0 42.667,-19.106 42.667,-42.667 0,-23.561 -19.107,-42.666 -42.668,-42.666 -14.14,0 -25.6,-11.46 -25.6,-25.6 V -540 h -17.067 v 25.6 c 0.026,23.552 19.115,42.641 42.667,42.667 14.14,0 25.6,11.46 25.6,25.6 0,14.14 -11.46,25.6 -25.6,25.6 h -93.867 c -61.234,0.068 -110.864,49.698 -110.933,110.933 z"
   inkscape:connector-curvature="0" /><path
   inkscape:export-ydpi="8.9527082"
   inkscape:export-xdpi="8.9527082"
   id="path889"
   d="m 341.118,-377.867 h 38.4 c 35.345,0 64,-28.655 64,-64 0,-35.345 -28.655,-64 -64,-64 h -4.267 c -14.14,0 -25.6,-11.46 -25.6,-25.6 V -540 h -17.067 v 8.533 c 0,23.561 19.106,42.667 42.667,42.667 h 4.267 c 25.924,0 46.933,21.009 46.933,46.933 0,25.924 -21.009,46.933 -46.933,46.933 h -38.4 c -16.495,0 -29.867,13.372 -29.867,29.867 0,16.495 13.372,29.867 29.867,29.867 v 0 c 14.14,0 25.6,11.46 25.6,25.6 h 17.067 c -0.026,-23.552 -19.115,-42.641 -42.667,-42.667 -7.066,0 -12.8,-5.734 -12.8,-12.8 0,-7.065 5.726,-12.8 12.8,-12.8 z"
   inkscape:connector-curvature="0" /><path
   inkscape:export-ydpi="8.9527082"
   inkscape:export-xdpi="8.9527082"
   sodipodi:nodetypes="ccccccc"
   inkscape:connector-curvature="0"
   style="fill:#3d2a29;fill-opacity:1"
   d="m 61.518,-280 v 25.6 c 20.536808,91.12626 55.49565,137.6893 97.388,166.667 h 142.558 c 47.75664,-28.9777 103.492,-128.692 97.388,-166.667 V -280 Z"
   id="path891" /><path
   inkscape:export-ydpi="8.9527082"
   inkscape:export-xdpi="8.9527082"
   id="path895"
   d="m 106.297,-226.135 -16.649,3.738 c 4.975,22.187 16.213,52.907 41.335,73.062 l 10.667,-13.329 c -21.281,-17.025 -30.932,-43.913 -35.353,-63.471 z"
   inkscape:connector-curvature="0"
   style="fill:#decd87" /><path
   inkscape:export-ydpi="8.9527082"
   inkscape:export-xdpi="8.9527082"
   id="path897"
   d="M 102.184,-258.4 H 85.118 c 0.111,6.076 0.58,12.134 1.391,18.15 l 16.93,-2.167 c -0.717,-5.299 -1.135,-10.633 -1.255,-15.983 z"
   inkscape:connector-curvature="0"
   style="fill:#decd87" /><g
   inkscape:export-ydpi="8.9530277"
   inkscape:export-xdpi="8.9530277"
   id="g903"
   style="fill:#59360b;fill-opacity:1"
   transform="translate(-2)">
	<path
   inkscape:connector-curvature="0"
   style="fill:#59360b;fill-opacity:1"
   d="m 375.251,324.267 47.582,-12.928 c 9.361,-1.877 18.475,4.19 20.352,13.559 0.222,1.118 0.341,2.261 0.333,3.396 v 0 c 0,7.723 -5.12,14.498 -12.544,16.623 l -62.123,16.324 -20.625,36.267 90.035,-21.487 c 23.057,-5.316 39.39,-25.847 39.39,-49.51 v 0 c 0,-28.066 -22.758,-50.816 -50.816,-50.816 -5.461,0 -10.889,0.879 -16.068,2.611 l -35.516,11.827 z"
   id="path899" />
	<path
   inkscape:connector-curvature="0"
   style="fill:#59360b;fill-opacity:1"
   d="m 33.918,452.267 h 392.533 v 0 0 c 0,28.279 -22.921,51.2 -51.2,51.2 v 0 H 85.118 c -28.28,0 -51.2,-22.921 -51.2,-51.2 z"
   id="path901" />
</g><path
   inkscape:export-ydpi="8.9530277"
   inkscape:export-xdpi="8.9530277"
   inkscape:connector-curvature="0"
   style="fill:#68160d;fill-opacity:1"
   d="m 57.518,256 v 25.6 c -0.017,70.63 37.948,135.825 99.388,170.667 H 299.464 C 360.904,417.425 398.869,352.231 398.852,281.6 V 256 Z"
   id="path905" /><path
   inkscape:export-ydpi="8.9530277"
   inkscape:export-xdpi="8.9530277"
   inkscape:connector-curvature="0"
   style="fill:#962c21;fill-opacity:1"
   d="m 313.518,256 v 25.6 c 0.017,70.63 -37.948,135.825 -99.388,170.667 h 85.333 C 360.903,417.425 398.868,352.231 398.851,281.6 V 256 Z"
   id="path907" /><g
   inkscape:export-ydpi="8.9530277"
   inkscape:export-xdpi="8.9530277"
   id="g913"
   transform="translate(-2)">
	<path
   inkscape:connector-curvature="0"
   style="fill:#f77a6d"
   d="M 130.984,390.665 C 105.845,370.543 94.623,339.823 89.649,317.603 l 16.649,-3.738 c 4.386,19.558 14.071,46.447 35.354,63.471 z"
   id="path909" />
	<path
   inkscape:connector-curvature="0"
   style="fill:#f77a6d"
   d="m 86.509,299.75 c -0.811,-6.016 -1.28,-12.075 -1.391,-18.15 h 17.067 c 0.119,5.35 0.538,10.692 1.254,15.991 z"
   id="path911" />
</g><path
   inkscape:export-ydpi="8.9530277"
   inkscape:export-xdpi="8.9530277"
   id="path915"
   d="m 59.518,288 v 25.6 c 37.12354,74.53953 55.49565,109.6893 97.388,138.667 H 299.464 C 347.22064,423.2893 367.266,368.213 396.852,313.6 V 288 Z"
   style="fill:#ca741f;fill-opacity:1"
   inkscape:connector-curvature="0"
   sodipodi:nodetypes="ccccccc" /><path
   inkscape:export-ydpi="8.9530277"
   inkscape:export-xdpi="8.9530277"
   d="m 369.266,400.213 68.907,-15.906 c 31.983,-7.125 52.13,-38.818 45.013,-70.801 -7.125,-31.983 -38.818,-52.13 -70.801,-45.013 -1.69,0.375 -3.354,0.828 -5.001,1.348 V 256 c 0,-4.71 -3.823,-8.533 -8.533,-8.533 H 57.518 c -4.71,0 -8.533,3.823 -8.533,8.533 v 25.6 c 0.111,63.479 29.585,123.341 79.829,162.133 H 31.918 c -4.71,0 -8.533,3.823 -8.533,8.533 0.043,32.973 26.761,59.691 59.733,59.733 h 290.133 c 32.973,-0.043 59.691,-26.761 59.733,-59.733 0,-4.71 -3.823,-8.533 -8.533,-8.533 h -96.896 c 15.966,-12.373 30.02,-27.042 41.711,-43.52 z m 33.69,-76.638 19.541,-3.908 c 4.727,-1.007 9.378,2.005 10.385,6.733 0.964,4.54 -1.775,9.045 -6.246,10.274 l -29.5,8.431 c 2.33,-7.057 4.275,-14.225 5.82,-21.495 z m 46.6,-31.411 c 18.944,13.662 23.228,40.09 9.574,59.034 -5.99,8.311 -14.805,14.165 -24.789,16.478 L 382.1,379.733 c 2.62,-4.787 5.052,-9.677 7.287,-14.66 l 41.941,-11.989 c 13.722,-3.891 21.683,-18.167 17.792,-31.889 -3.686,-12.979 -16.734,-20.932 -29.961,-18.261 l -13.286,2.654 c 0.708,-5.879 1.118,-11.819 1.297,-17.801 l 4.267,-1.425 c 12.902,-4.369 27.119,-2.193 38.118,5.837 v -0.035 z M 373.251,494.933 H 83.118 C 62.851,494.907 45.384,480.657 41.305,460.8 h 373.76 c -4.08,19.857 -21.547,34.108 -41.814,34.133 z m -76.075,-51.2 H 159.192 C 101.601,410.018 66.162,348.33 66.051,281.6 V 264.533 H 390.318 V 281.6 c -0.111,66.731 -35.55,128.418 -93.142,162.133 z"
   id="path917"
   style="fill:#891d11;fill-opacity:1"
   inkscape:connector-curvature="0" /><path
   inkscape:export-ydpi="8.9530277"
   inkscape:export-xdpi="8.9530277"
   inkscape:connector-curvature="0"
   d="m 104.297,313.865 -16.649,3.738 c 4.975,22.187 16.213,52.907 41.335,73.062 l 10.667,-13.329 c -21.281,-17.025 -30.932,-43.913 -35.353,-63.471 z"
   id="path919" /><path
   inkscape:export-ydpi="8.9530277"
   inkscape:export-xdpi="8.9530277"
   inkscape:connector-curvature="0"
   d="M 100.184,281.6 H 83.118 c 0.111,6.076 0.58,12.134 1.391,18.15 l 16.93,-2.167 c -0.717,-5.299 -1.135,-10.633 -1.255,-15.983 z"
   id="path921" /><rect
   style="opacity:1;fill:none;fill-opacity:1;stroke:#000001;stroke-width:2.5620501;stroke-linecap:round;stroke-miterlimit:4;stroke-dasharray:7.68615104, 7.68615104;stroke-dashoffset:0;stroke-opacity:0.97071078"
   id="rect923"
   width="512.12415"
   height="512.12408"
   x="-540.23486"
   y="-539.84119"
   inkscape:export-xdpi="8.9527092"
   inkscape:export-ydpi="8.9527092" /><g
   transform="translate(-540,-540)"
   id="g929"
   style="fill:#d98e53;fill-opacity:1"
   inkscape:export-xdpi="8.9527092"
   inkscape:export-ydpi="8.9527092">
	<path
   style="fill:#d98e53;fill-opacity:1"
   d="m 375.251,324.267 47.582,-12.928 c 9.361,-1.877 18.475,4.19 20.352,13.559 0.222,1.118 0.341,2.261 0.333,3.396 v 0 c 0,7.723 -5.12,14.498 -12.544,16.623 l -62.123,16.324 -20.625,36.267 90.035,-21.487 c 23.057,-5.316 39.39,-25.847 39.39,-49.51 v 0 c 0,-28.066 -22.758,-50.816 -50.816,-50.816 -5.461,0 -10.889,0.879 -16.068,2.611 l -35.516,11.827 z"
   id="path925"
   inkscape:connector-curvature="0" />
	<path
   style="fill:#d98e53;fill-opacity:1"
   d="m 33.918,452.267 h 392.533 v 0 0 c 0,28.279 -22.921,51.2 -51.2,51.2 v 0 H 85.118 c -28.28,0 -51.2,-22.921 -51.2,-51.2 z"
   id="path927"
   inkscape:connector-curvature="0" />
</g><path
   inkscape:connector-curvature="0"
   style="fill:#d98c53;fill-opacity:1"
   d="m -480.482,-284 v 25.6 c -0.017,70.63 37.948,135.825 99.388,170.667 h 142.558 c 61.44,-34.842 99.405,-100.036 99.388,-170.667 V -284 Z"
   id="path931"
   inkscape:export-xdpi="8.9527092"
   inkscape:export-ydpi="8.9527092" /><path
   inkscape:connector-curvature="0"
   style="fill:#d9c653;fill-opacity:1"
   d="m -224.482,-284 v 25.6 c 0.017,70.63 -37.948,135.825 -99.388,170.667 h 85.333 c 61.44,-34.842 99.405,-100.036 99.388,-170.667 V -284 Z"
   id="path933"
   inkscape:export-xdpi="8.9527092"
   inkscape:export-ydpi="8.9527092" /><g
   transform="translate(-540,-540)"
   id="g941"
   inkscape:export-xdpi="8.9527092"
   inkscape:export-ydpi="8.9527092">
	<path
   inkscape:connector-curvature="0"
   style="fill:#f77a6d"
   d="M 130.984,390.665 C 105.845,370.543 94.623,339.823 89.649,317.603 l 16.649,-3.738 c 4.386,19.558 14.071,46.447 35.354,63.471 z"
   id="path937" />
	<path
   inkscape:connector-curvature="0"
   style="fill:#f77a6d"
   d="m 86.509,299.75 c -0.811,-6.016 -1.28,-12.075 -1.391,-18.15 h 17.067 c 0.119,5.35 0.538,10.692 1.254,15.991 z"
   id="path939" />
</g><path
   id="path947"
   d="m -478.482,-261.733 v 27.11683 c 37.12354,78.95608 55.49565,116.18851 97.388,146.88317 h 142.558 c 47.75664,-30.69466 67.802,-89.03429 97.388,-146.88317 V -261.733 Z"
   style="fill:#3d2a29;fill-opacity:1;stroke-width:1.02919924"
   inkscape:connector-curvature="0"
   sodipodi:nodetypes="ccccccc"
   inkscape:export-xdpi="8.9527092"
   inkscape:export-ydpi="8.9527092" /><path
   d="m -168.734,-139.787 68.907,-15.906 c 31.983,-7.125 52.13,-38.818 45.013,-70.801 -7.125,-31.983 -38.818,-52.13 -70.801,-45.013 -1.69,0.375 -3.354,0.828 -5.001,1.348 V -284 c 0,-4.71 -3.823,-8.533 -8.533,-8.533 h -341.333 c -4.71,0 -8.533,3.823 -8.533,8.533 v 25.6 c 0.111,63.479 29.585,123.341 79.829,162.133 h -96.896 c -4.71,0 -8.533,3.823 -8.533,8.533 0.043,32.973 26.761,59.691 59.733,59.733 h 290.133 c 32.973,-0.043 59.691,-26.761 59.733,-59.733 0,-4.71 -3.823,-8.533 -8.533,-8.533 h -96.896 c 15.966,-12.373 30.02,-27.042 41.711,-43.52 z m 33.69,-76.638 19.541,-3.908 c 4.727,-1.007 9.378,2.005 10.385,6.733 0.964,4.54 -1.775,9.045 -6.246,10.274 l -29.5,8.431 c 2.33,-7.057 4.275,-14.225 5.82,-21.495 z m 46.6,-31.411 c 18.944,13.662 23.228,40.09 9.574,59.034 -5.99,8.311 -14.805,14.165 -24.789,16.478 l -52.241,12.057 c 2.62,-4.787 5.052,-9.677 7.287,-14.66 l 41.941,-11.989 c 13.722,-3.891 21.683,-18.167 17.792,-31.889 -3.686,-12.979 -16.734,-20.932 -29.961,-18.261 l -13.286,2.654 c 0.708,-5.879 1.118,-11.819 1.297,-17.801 l 4.267,-1.425 c 12.902,-4.369 27.119,-2.193 38.118,5.837 v -0.035 z m -76.305,202.769 h -290.133 c -20.267,-0.026 -37.734,-14.276 -41.813,-34.133 h 373.76 c -4.08,19.857 -21.547,34.108 -41.814,34.133 z m -76.075,-51.2 h -137.984 c -57.591,-33.715 -93.03,-95.403 -93.141,-162.133 v -17.067 h 324.267 v 17.067 c -0.111,66.731 -35.55,128.418 -93.142,162.133 z"
   id="path949"
   style="fill:#d9a653;fill-opacity:1;stroke:none;stroke-opacity:0.97071078"
   inkscape:connector-curvature="0"
   inkscape:export-xdpi="8.9527092"
   inkscape:export-ydpi="8.9527092" /><path
   inkscape:connector-curvature="0"
   d="m -433.703,-226.135 -16.649,3.738 c 4.975,22.187 16.213,52.907 41.335,73.062 l 10.667,-13.329 c -21.281,-17.025 -30.932,-43.913 -35.353,-63.471 z"
   id="path951"
   inkscape:export-xdpi="8.9527092"
   inkscape:export-ydpi="8.9527092"
   style="fill:#decd87" /><path
   inkscape:connector-curvature="0"
   d="m -437.816,-258.4 h -17.066 c 0.111,6.076 0.58,12.134 1.391,18.15 l 16.93,-2.167 c -0.717,-5.299 -1.135,-10.633 -1.255,-15.983 z"
   id="path953"
   inkscape:export-xdpi="8.9527092"
   inkscape:export-ydpi="8.9527092"
   style="fill:#decd87" /><path
   inkscape:export-ydpi="8.9527082"
   inkscape:export-xdpi="8.9527082"
   inkscape:connector-curvature="0"
   style="fill:#d9a653;fill-opacity:1;stroke:none;stroke-opacity:0.97071078"
   id="path893"
   d="m 371.266,-139.787 68.907,-15.906 c 31.983,-7.125 52.13,-38.818 45.013,-70.801 -7.125,-31.983 -38.818,-52.13 -70.801,-45.013 -1.69,0.375 -3.354,0.828 -5.001,1.348 V -284 c 0,-4.71 -3.823,-8.533 -8.533,-8.533 H 59.518 c -4.71,0 -8.533,3.823 -8.533,8.533 v 25.6 c 0.111,63.479 29.585,123.341 79.829,162.133 H 33.918 c -4.71,0 -8.533,3.823 -8.533,8.533 0.043,32.973 26.761,59.691 59.733,59.733 h 290.133 c 32.973,-0.043 59.691,-26.761 59.733,-59.733 0,-4.71 -3.823,-8.533 -8.533,-8.533 h -96.896 c 15.966,-12.373 30.02,-27.042 41.711,-43.52 z m 33.69,-76.638 19.541,-3.908 c 4.727,-1.007 9.378,2.005 10.385,6.733 0.964,4.54 -1.775,9.045 -6.246,10.274 l -29.5,8.431 c 2.33,-7.057 4.275,-14.225 5.82,-21.495 z m 46.6,-31.411 c 18.944,13.662 23.228,40.09 9.574,59.034 -5.99,8.311 -14.805,14.165 -24.789,16.478 l -52.241,12.057 c 2.62,-4.787 5.052,-9.677 7.287,-14.66 l 41.941,-11.989 c 13.722,-3.891 21.683,-18.167 17.792,-31.889 -3.686,-12.979 -16.734,-20.932 -29.961,-18.261 l -13.286,2.654 c 0.708,-5.879 1.118,-11.819 1.297,-17.801 l 4.267,-1.425 c 12.902,-4.369 27.119,-2.193 38.118,5.837 v -0.035 z M 375.251,-45.067 H 85.118 C 64.851,-45.093 47.384,-59.343 43.305,-79.2 h 373.76 c -4.08,19.857 -21.547,34.108 -41.814,34.133 z m -76.075,-51.2 H 161.192 C 103.601,-129.982 68.162,-191.67 68.051,-258.4 v -17.067 h 324.267 v 17.067 c -0.111,66.731 -35.55,128.418 -93.142,162.133 z" /><path
   inkscape:connector-curvature="0"
   style="fill:#f0e4d6"
   d="m -198.882,-540 v 8.533 c 0,18.85 15.283,34.133 34.133,34.133 h 4.267 c 30.635,0 -4.533,24.832 -4.533,55.467 v 0 c 0,30.635 35.168,55.467 4.533,55.467 h -38.4 c -11.785,0 -53.333,9.549 -53.333,21.333 h 2 c 0,11.785 39.549,21.333 51.333,21.333 v 0 c 18.85,0 34.133,15.283 34.133,34.133 h -266.133 c 0,-56.55 21.85,-102.4 78.4,-102.4 h 93.867 c 18.85,0 34.133,-15.283 34.133,-34.133 v 0 c 0,-18.85 -15.283,-34.133 -34.133,-34.133 v 0 c -18.85,0 -34.133,-15.283 -34.133,-34.133 V -540 Z"
   id="path965"
   inkscape:export-xdpi="8.9527092"
   inkscape:export-ydpi="8.9527092"
   sodipodi:nodetypes="csssccssccccccssccccscc" /><path
   inkscape:connector-curvature="0"
   d="m -438.66485,-312.36446 h 15.36 c 0.054,-51.1923 37.84606,-92.68145 84.47865,-92.74073 h 84.47865 c 21.20449,0 38.39955,-18.87676 38.39955,-42.15506 0,-23.2783 -17.19596,-42.15407 -38.40045,-42.15407 -12.72575,0 -23.03955,-11.3225 -23.03955,-25.29284 V -540 h -15.36 v 25.29284 c 0.0234,23.26941 17.20316,42.12937 38.39955,42.15506 12.72575,0 23.03955,11.3225 23.03955,25.29284 0,13.97034 -10.3138,25.29283 -23.03955,25.29283 h -84.47865 c -55.10952,0.0672 -99.77565,49.1017 -99.83775,109.60197 z"
   id="path967"
   inkscape:export-xdpi="8.9527092"
   inkscape:export-ydpi="8.9527092"
   style="stroke-width:0.94296551" /><path
   inkscape:connector-curvature="0"
   d="m -230.882,-377.867 h 38.4 c 35.345,0 44,-28.655 44,-64 0,-35.345 -2.655,-64 -38,-64 h -4.267 c -14.14,0 -6.59426,-20.0511 -19.6,-25.6 V -540 h -17.067 v 8.533 c 0,23.561 13.106,42.667 36.667,42.667 h 4.267 c 25.924,0 20.933,21.009 20.933,46.933 0,25.924 -1.009,46.933 -26.933,46.933 h -38.4 c -16.495,0 -29.867,13.372 -29.867,29.867 0,16.495 13.372,29.867 29.867,29.867 v 0 c 14.14,0 57.6,11.46 57.6,25.6 h 17.067 c -0.026,-23.552 -51.115,-42.641 -74.667,-42.667 -7.066,0 -12.8,-5.734 -12.8,-12.8 0,-7.065 5.726,-12.8 12.8,-12.8 z"
   id="path969"
   inkscape:export-xdpi="8.9527092"
   inkscape:export-ydpi="8.9527092"
   sodipodi:nodetypes="ssssssccssssssscccccss" /><rect
   inkscape:export-ydpi="8.9527082"
   inkscape:export-xdpi="8.9527082"
   y="-539.84119"
   x="-1080.2349"
   height="512.12408"
   width="512.12415"
   id="rect971"
   style="opacity:1;fill:none;fill-opacity:1;stroke:#000001;stroke-width:2.5620501;stroke-linecap:round;stroke-miterlimit:4;stroke-dasharray:7.68615104, 7.68615104;stroke-dashoffset:0;stroke-opacity:0.97071078" /><g
   inkscape:export-ydpi="8.9527082"
   inkscape:export-xdpi="8.9527082"
   style="fill:#d98e53;fill-opacity:1"
   id="g977"
   transform="translate(-1080,-540)">
	<path
   inkscape:connector-curvature="0"
   id="path973"
   d="m 375.251,324.267 47.582,-12.928 c 9.361,-1.877 18.475,4.19 20.352,13.559 0.222,1.118 0.341,2.261 0.333,3.396 v 0 c 0,7.723 -5.12,14.498 -12.544,16.623 l -62.123,16.324 -20.625,36.267 90.035,-21.487 c 23.057,-5.316 39.39,-25.847 39.39,-49.51 v 0 c 0,-28.066 -22.758,-50.816 -50.816,-50.816 -5.461,0 -10.889,0.879 -16.068,2.611 l -35.516,11.827 z"
   style="fill:#d98e53;fill-opacity:1" />
	<path
   inkscape:connector-curvature="0"
   id="path975"
   d="m 33.918,452.267 h 392.533 v 0 0 c 0,28.279 -22.921,51.2 -51.2,51.2 v 0 H 85.118 c -28.28,0 -51.2,-22.921 -51.2,-51.2 z"
   style="fill:#d98e53;fill-opacity:1" />
</g><path
   inkscape:export-ydpi="8.9527082"
   inkscape:export-xdpi="8.9527082"
   id="path979"
   d="m -1020.482,-284 v 25.6 c -0.017,70.63 37.948,135.825 99.388,170.667 h 142.558 c 61.44,-34.842 99.405,-100.036 99.388,-170.667 V -284 Z"
   style="fill:#d98c53;fill-opacity:1"
   inkscape:connector-curvature="0" /><path
   inkscape:export-ydpi="8.9527082"
   inkscape:export-xdpi="8.9527082"
   id="path981"
   d="m -764.482,-284 v 25.6 c 0.017,70.63 -37.948,135.825 -99.388,170.667 h 85.333 c 61.44,-34.842 99.405,-100.036 99.388,-170.667 V -284 Z"
   style="fill:#d9c653;fill-opacity:1"
   inkscape:connector-curvature="0" /><g
   inkscape:export-ydpi="8.9527082"
   inkscape:export-xdpi="8.9527082"
   id="g987"
   transform="translate(-1080,-540)">
	<path
   id="path983"
   d="M 130.984,390.665 C 105.845,370.543 94.623,339.823 89.649,317.603 l 16.649,-3.738 c 4.386,19.558 14.071,46.447 35.354,63.471 z"
   style="fill:#f77a6d"
   inkscape:connector-curvature="0" />
	<path
   id="path985"
   d="m 86.509,299.75 c -0.811,-6.016 -1.28,-12.075 -1.391,-18.15 h 17.067 c 0.119,5.35 0.538,10.692 1.254,15.991 z"
   style="fill:#f77a6d"
   inkscape:connector-curvature="0" />
</g><path
   inkscape:export-ydpi="8.9527082"
   inkscape:export-xdpi="8.9527082"
   sodipodi:nodetypes="ccccccc"
   inkscape:connector-curvature="0"
   style="fill:#3d2a29;fill-opacity:1;stroke-width:0.97138339"
   d="m -1018.482,-242.733 v 24.1558 c 37.1235,70.33444 55.4956,103.50126 97.388,130.8442 h 142.558 c 47.75664,-27.34294 67.802,-79.31215 97.388,-130.8442 v -24.1558 z"
   id="path989" /><path
   inkscape:export-ydpi="8.9527082"
   inkscape:export-xdpi="8.9527082"
   inkscape:connector-curvature="0"
   style="fill:#d9a653;fill-opacity:1;stroke:none;stroke-opacity:0.97071078"
   id="path991"
   d="m -708.734,-139.787 68.907,-15.906 c 31.983,-7.125 52.13,-38.818 45.013,-70.801 -7.125,-31.983 -38.818,-52.13 -70.801,-45.013 -1.69,0.375 -3.354,0.828 -5.001,1.348 V -284 c 0,-4.71 -3.823,-8.533 -8.533,-8.533 h -341.333 c -4.71,0 -8.533,3.823 -8.533,8.533 v 25.6 c 0.111,63.479 29.585,123.341 79.829,162.133 h -96.896 c -4.71,0 -8.533,3.823 -8.533,8.533 0.043,32.973 26.761,59.691 59.733,59.733 h 290.133 c 32.973,-0.043 59.691,-26.761 59.733,-59.733 0,-4.71 -3.823,-8.533 -8.533,-8.533 h -96.896 c 15.966,-12.373 30.02,-27.042 41.711,-43.52 z m 33.69,-76.638 19.541,-3.908 c 4.727,-1.007 9.378,2.005 10.385,6.733 0.964,4.54 -1.775,9.045 -6.246,10.274 l -29.5,8.431 c 2.33,-7.057 4.275,-14.225 5.82,-21.495 z m 46.6,-31.411 c 18.944,13.662 23.228,40.09 9.574,59.034 -5.99,8.311 -14.805,14.165 -24.789,16.478 l -52.241,12.057 c 2.62,-4.787 5.052,-9.677 7.287,-14.66 l 41.941,-11.989 c 13.722,-3.891 21.683,-18.167 17.792,-31.889 -3.686,-12.979 -16.734,-20.932 -29.961,-18.261 l -13.286,2.654 c 0.708,-5.879 1.118,-11.819 1.297,-17.801 l 4.267,-1.425 c 12.902,-4.369 27.119,-2.193 38.118,5.837 v -0.035 z m -76.305,202.769 h -290.133 c -20.267,-0.026 -37.734,-14.276 -41.813,-34.133 h 373.76 c -4.08,19.857 -21.547,34.108 -41.814,34.133 z m -76.075,-51.2 h -137.984 c -57.591,-33.715 -93.03,-95.403 -93.141,-162.133 v -17.067 h 324.267 v 17.067 c -0.111,66.731 -35.55,128.418 -93.142,162.133 z" /><path
   style="fill:#decd87"
   inkscape:export-ydpi="8.9527082"
   inkscape:export-xdpi="8.9527082"
   id="path993"
   d="m -973.703,-226.135 -16.649,3.738 c 4.975,22.187 16.213,52.907 41.335,73.062 l 10.667,-13.329 c -21.281,-17.025 -30.932,-43.913 -35.353,-63.471 z"
   inkscape:connector-curvature="0" /><path
   style="fill:#decd87"
   inkscape:export-ydpi="8.9527082"
   inkscape:export-xdpi="8.9527082"
   id="path995"
   d="m -977.816,-258.4 h -17.066 c 0.111,6.076 0.58,12.134 1.391,18.15 l 16.93,-2.167 c -0.717,-5.299 -1.135,-10.633 -1.255,-15.983 z"
   inkscape:connector-curvature="0" /><path
   sodipodi:nodetypes="csssccsscccccssccccscc"
   inkscape:export-ydpi="8.9527082"
   inkscape:export-xdpi="8.9527082"
   id="path997"
   d="m -738.882,-540 v 8.533 c 0,18.85 15.283,34.133 34.133,34.133 h 4.267 c 30.635,0 -4.533,24.832 -4.533,55.467 v 0 c 0,30.635 35.168,55.467 4.533,55.467 h -38.4 c -11.785,0 -24.98891,11.50377 -24.98891,23.28777 12.45566,11.63758 6.40209,18.86086 24.98891,19.37823 v 0 c 18.85,0 34.133,15.283 34.133,34.133 h -266.133 c 0,-56.55 21.85,-60.4 78.4,-60.4 h 93.867 c 18.85,0 34.133,-57.283 34.133,-76.133 v 0 c 0,-18.85 -15.283,-34.133 -34.133,-34.133 v 0 c -18.85,0 -34.133,-15.283 -34.133,-34.133 V -540 Z"
   style="fill:#f0e4d6"
   inkscape:connector-curvature="0" /><path
   style="stroke-width:0.94296551"
   inkscape:export-ydpi="8.9527082"
   inkscape:export-xdpi="8.9527082"
   id="path999"
   d="m -978.6648,-312.36446 h 15.36 c 0.054,-51.1923 37.84601,-50.68145 84.4786,-50.74073 h 84.47865 c 21.20449,0 38.39955,-60.87676 38.39955,-84.15506 0,-23.2783 -17.19596,-42.15407 -38.40045,-42.15407 -12.72575,0 -23.03955,-11.3225 -23.03955,-25.29284 V -540 h -15.36 v 25.29284 c 0.0234,23.26941 17.20316,42.12937 38.39955,42.15506 12.72575,0 23.03955,11.3225 23.03955,25.29284 0,13.97034 -10.3138,67.29283 -23.03955,67.29283 h -84.47865 c -55.10952,0.0672 -99.7757,7.1017 -99.8377,67.60197 z"
   inkscape:connector-curvature="0"
   sodipodi:nodetypes="cccssssccccsscc" /><path
   sodipodi:nodetypes="cccczzcccc"
   inkscape:export-ydpi="8.9527082"
   inkscape:export-xdpi="8.9527082"
   id="path1001"
   d="m -688.482,-441.867 c 7.08174,-66.62534 -60.89765,-49.94674 -61.867,-98.133 h -17.067 c 4.95437,58.26267 62.45088,40.99633 61.867,98.133 -12.17241,37.86951 -26.98567,41.0045 -47.74011,53.77468 -20.75445,12.77017 -7.38862,9.88462 -16.18365,40.61821 -8.79503,30.73359 54.28637,16.27232 56.19076,37.87411 h 17.067 c -15.44304,-43.241 -39.71981,-24.56706 -37.62049,-57.42177 1.11005,-18.85727 43.28396,-18.81791 45.35349,-74.84523 z"
   inkscape:connector-curvature="0" /><rect
   style="opacity:1;fill:none;fill-opacity:1;stroke:#000001;stroke-width:2.5620501;stroke-linecap:round;stroke-miterlimit:4;stroke-dasharray:7.68615104, 7.68615104;stroke-dashoffset:0;stroke-opacity:0.97071078"
   id="rect1003"
   width="512.12415"
   height="512.12408"
   x="-1620.2349"
   y="-539.84119"
   inkscape:export-xdpi="8.9527082"
   inkscape:export-ydpi="8.9527082" /><g
   transform="translate(-1620,-540)"
   id="g1009"
   style="fill:#d98e53;fill-opacity:1"
   inkscape:export-xdpi="8.9527082"
   inkscape:export-ydpi="8.9527082">
	<path
   style="fill:#d98e53;fill-opacity:1"
   d="m 375.251,324.267 47.582,-12.928 c 9.361,-1.877 18.475,4.19 20.352,13.559 0.222,1.118 0.341,2.261 0.333,3.396 v 0 c 0,7.723 -5.12,14.498 -12.544,16.623 l -62.123,16.324 -20.625,36.267 90.035,-21.487 c 23.057,-5.316 39.39,-25.847 39.39,-49.51 v 0 c 0,-28.066 -22.758,-50.816 -50.816,-50.816 -5.461,0 -10.889,0.879 -16.068,2.611 l -35.516,11.827 z"
   id="path1005"
   inkscape:connector-curvature="0" />
	<path
   style="fill:#d98e53;fill-opacity:1"
   d="m 33.918,452.267 h 392.533 v 0 0 c 0,28.279 -22.921,51.2 -51.2,51.2 v 0 H 85.118 c -28.28,0 -51.2,-22.921 -51.2,-51.2 z"
   id="path1007"
   inkscape:connector-curvature="0" />
</g><path
   inkscape:connector-curvature="0"
   style="fill:#d98c53;fill-opacity:1"
   d="m -1560.482,-284 v 25.6 c -0.017,70.63 37.948,135.825 99.388,170.667 h 142.558 c 61.44,-34.842 99.405,-100.036 99.388,-170.667 V -284 Z"
   id="path1011"
   inkscape:export-xdpi="8.9527082"
   inkscape:export-ydpi="8.9527082" /><path
   inkscape:connector-curvature="0"
   style="fill:#d9c653;fill-opacity:1"
   d="m -1304.482,-284 v 25.6 c 0.017,70.63 -37.948,135.825 -99.388,170.667 h 85.333 c 61.44,-34.842 99.405,-100.036 99.388,-170.667 V -284 Z"
   id="path1013"
   inkscape:export-xdpi="8.9527082"
   inkscape:export-ydpi="8.9527082" /><g
   transform="translate(-1620,-540)"
   id="g1019"
   inkscape:export-xdpi="8.9527082"
   inkscape:export-ydpi="8.9527082">
	<path
   inkscape:connector-curvature="0"
   style="fill:#f77a6d"
   d="M 130.984,390.665 C 105.845,370.543 94.623,339.823 89.649,317.603 l 16.649,-3.738 c 4.386,19.558 14.071,46.447 35.354,63.471 z"
   id="path1015" />
	<path
   inkscape:connector-curvature="0"
   style="fill:#f77a6d"
   d="m 86.509,299.75 c -0.811,-6.016 -1.28,-12.075 -1.391,-18.15 h 17.067 c 0.119,5.35 0.538,10.692 1.254,15.991 z"
   id="path1017" />
</g><path
   id="path1021"
   d="m -1558.482,-222.733 v 21.03892 c 37.1235,61.25903 55.4956,90.14626 97.388,113.96108 h 142.558 c 47.7566,-23.81482 67.802,-69.07832 97.388,-113.96108 V -222.733 Z"
   style="fill:#3d2a29;fill-opacity:1;stroke-width:0.90654987"
   inkscape:connector-curvature="0"
   sodipodi:nodetypes="ccccccc"
   inkscape:export-xdpi="8.9527082"
   inkscape:export-ydpi="8.9527082" /><path
   d="m -1248.734,-139.787 68.907,-15.906 c 31.983,-7.125 52.13,-38.818 45.013,-70.801 -7.125,-31.983 -38.818,-52.13 -70.801,-45.013 -1.69,0.375 -3.354,0.828 -5.001,1.348 V -284 c 0,-4.71 -3.823,-8.533 -8.533,-8.533 h -341.333 c -4.71,0 -8.533,3.823 -8.533,8.533 v 25.6 c 0.111,63.479 29.585,123.341 79.829,162.133 h -96.896 c -4.71,0 -8.533,3.823 -8.533,8.533 0.043,32.973 26.761,59.691 59.733,59.733 h 290.133 c 32.973,-0.043 59.691,-26.761 59.733,-59.733 0,-4.71 -3.823,-8.533 -8.533,-8.533 h -96.896 c 15.966,-12.373 30.02,-27.042 41.711,-43.52 z m 33.69,-76.638 19.541,-3.908 c 4.727,-1.007 9.378,2.005 10.385,6.733 0.964,4.54 -1.775,9.045 -6.246,10.274 l -29.5,8.431 c 2.33,-7.057 4.275,-14.225 5.82,-21.495 z m 46.6,-31.411 c 18.944,13.662 23.228,40.09 9.574,59.034 -5.99,8.311 -14.805,14.165 -24.789,16.478 l -52.241,12.057 c 2.62,-4.787 5.052,-9.677 7.287,-14.66 l 41.941,-11.989 c 13.722,-3.891 21.683,-18.167 17.792,-31.889 -3.686,-12.979 -16.734,-20.932 -29.961,-18.261 l -13.286,2.654 c 0.708,-5.879 1.118,-11.819 1.297,-17.801 l 4.267,-1.425 c 12.902,-4.369 27.119,-2.193 38.118,5.837 v -0.035 z m -76.305,202.769 h -290.133 c -20.267,-0.026 -37.734,-14.276 -41.813,-34.133 h 373.76 c -4.08,19.857 -21.547,34.108 -41.814,34.133 z m -76.075,-51.2 h -137.984 c -57.591,-33.715 -93.03,-95.403 -93.141,-162.133 v -17.067 h 324.267 v 17.067 c -0.111,66.731 -35.55,128.418 -93.142,162.133 z"
   id="path1023"
   style="fill:#d9a653;fill-opacity:1;stroke:none;stroke-opacity:0.97071078"
   inkscape:connector-curvature="0"
   inkscape:export-xdpi="8.9527082"
   inkscape:export-ydpi="8.9527082" /><path
   inkscape:connector-curvature="0"
   d="m -1513.703,-226.135 -16.649,3.738 c 4.975,22.187 16.213,52.907 41.335,73.062 l 10.667,-13.329 c -21.281,-17.025 -30.932,-43.913 -35.353,-63.471 z"
   id="path1025"
   inkscape:export-xdpi="8.9527082"
   inkscape:export-ydpi="8.9527082"
   style="fill:#decd87" /><path
   inkscape:connector-curvature="0"
   d="m -1517.816,-258.4 h -17.066 c 0.111,6.076 0.58,12.134 1.391,18.15 l 16.93,-2.167 c -0.717,-5.299 -1.135,-10.633 -1.255,-15.983 z"
   id="path1027"
   inkscape:export-xdpi="8.9527082"
   inkscape:export-ydpi="8.9527082"
   style="fill:#decd87" /><path
   inkscape:connector-curvature="0"
   style="fill:#f0e4d6"
   d="m -1278.882,-540 v 8.533 c 0,18.85 -16.277,19.61961 -9.867,34.133 21.9612,23.10182 0.223,43.22543 -0.266,55.467 v 0 c 0,30.635 -26.102,55.467 4.533,55.467 h 5.6 c 11.785,0 -24.9889,11.50377 -24.9889,23.28777 12.4557,11.63758 6.4021,18.86086 24.9889,19.37823 v 0 c 18.85,0 34.133,15.283 34.133,34.133 h -266.133 c 0,-56.55 21.85,-60.4 78.4,-60.4 65.5065,-16.58761 69.9853,-12.89876 102.4288,-72.67743 -9.5201,-11.46301 6.4636,-13.91158 -19.6196,-26.53075 -18.85,0 -23.0752,-26.34082 -23.0752,-45.19082 V -540 Z"
   id="path1029"
   inkscape:export-xdpi="8.9527082"
   inkscape:export-ydpi="8.9527082"
   sodipodi:nodetypes="cscccssccccccccscc" /><path
   sodipodi:nodetypes="cccssssccccsscc"
   inkscape:connector-curvature="0"
   d="m -1518.6648,-312.36446 h 15.36 c 0.054,-51.1923 37.846,-50.68145 84.4786,-50.74073 l 40.9384,-14.51339 c 19.9858,-7.08529 54.2952,-38.07 54.2952,-61.3483 0,-23.2783 -16.5048,-40.08073 -37.7093,-40.08073 -12.7257,0 3.9139,-21.68921 3.9139,-35.65955 V -540 h -15.36 v 25.29284 c 0.023,23.26941 -9.7502,52.49608 11.4461,52.52177 12.7258,0 22.3484,9.24916 22.3484,23.2195 0,13.97034 -26.9408,40.23386 -38.9352,44.48607 l -40.9384,14.51339 c -55.1095,0.0672 -99.7757,7.1017 -99.8377,67.60197 z"
   id="path1031"
   inkscape:export-xdpi="8.9527082"
   inkscape:export-ydpi="8.9527082"
   style="stroke-width:0.94296551" /><path
   inkscape:connector-curvature="0"
   d="m -1274.482,-441.867 c 7.0817,-66.62534 -14.8976,-49.94674 -15.867,-98.133 h -17.067 c 4.9544,58.26267 16.4509,40.99633 15.867,98.133 -7.9743,49.38371 -8.3523,59.17431 -17.9238,94.39289 -8.795,30.73359 54.2864,16.27232 56.1908,37.87411 h 17.067 c -15.443,-43.241 -56.3065,-15.58258 -54.2072,-48.43729 1.1101,-18.85727 13.8707,-27.80239 15.9402,-83.82971 z"
   id="path1033"
   inkscape:export-xdpi="8.9527082"
   inkscape:export-ydpi="8.9527082"
   sodipodi:nodetypes="ccccccccc" /><rect
   inkscape:export-ydpi="8.9527082"
   inkscape:export-xdpi="8.9527082"
   y="-539.84119"
   x="-2160.2349"
   height="512.12408"
   width="512.12415"
   id="rect1065"
   style="opacity:1;fill:none;fill-opacity:1;stroke:#000001;stroke-width:2.5620501;stroke-linecap:round;stroke-miterlimit:4;stroke-dasharray:7.68615104, 7.68615104;stroke-dashoffset:0;stroke-opacity:0.97071078"
   inkscape:export-filename="/home/daniel/development/reveal-games/resources/barista 02/Karamell-4.png" /><g
   inkscape:export-ydpi="8.9527082"
   inkscape:export-xdpi="8.9527082"
   style="fill:#d98e53;fill-opacity:1"
   id="g1071"
   transform="translate(-2160,-540)"
   inkscape:export-filename="/home/daniel/development/reveal-games/resources/barista 02/Karamell-4.png">
	<path
   inkscape:connector-curvature="0"
   id="path1067"
   d="m 375.251,324.267 47.582,-12.928 c 9.361,-1.877 18.475,4.19 20.352,13.559 0.222,1.118 0.341,2.261 0.333,3.396 v 0 c 0,7.723 -5.12,14.498 -12.544,16.623 l -62.123,16.324 -20.625,36.267 90.035,-21.487 c 23.057,-5.316 39.39,-25.847 39.39,-49.51 v 0 c 0,-28.066 -22.758,-50.816 -50.816,-50.816 -5.461,0 -10.889,0.879 -16.068,2.611 l -35.516,11.827 z"
   style="fill:#d98e53;fill-opacity:1" />
	<path
   inkscape:connector-curvature="0"
   id="path1069"
   d="m 33.918,452.267 h 392.533 v 0 0 c 0,28.279 -22.921,51.2 -51.2,51.2 v 0 H 85.118 c -28.28,0 -51.2,-22.921 -51.2,-51.2 z"
   style="fill:#d98e53;fill-opacity:1" />
</g><path
   inkscape:export-ydpi="8.9527082"
   inkscape:export-xdpi="8.9527082"
   id="path1073"
   d="m -2100.482,-284 v 25.6 c -0.017,70.63 37.948,135.825 99.388,170.667 h 142.558 c 61.44,-34.842 99.405,-100.036 99.388,-170.667 V -284 Z"
   style="fill:#d98c53;fill-opacity:1"
   inkscape:connector-curvature="0"
   inkscape:export-filename="/home/daniel/development/reveal-games/resources/barista 02/Karamell-4.png" /><path
   inkscape:export-ydpi="8.9527082"
   inkscape:export-xdpi="8.9527082"
   id="path1075"
   d="m -1844.482,-284 v 25.6 c 0.017,70.63 -37.948,135.825 -99.388,170.667 h 85.333 c 61.44,-34.842 99.405,-100.036 99.388,-170.667 V -284 Z"
   style="fill:#d9c653;fill-opacity:1"
   inkscape:connector-curvature="0"
   inkscape:export-filename="/home/daniel/development/reveal-games/resources/barista 02/Karamell-4.png" /><g
   inkscape:export-ydpi="8.9527082"
   inkscape:export-xdpi="8.9527082"
   id="g1081"
   transform="translate(-2160,-540)"
   inkscape:export-filename="/home/daniel/development/reveal-games/resources/barista 02/Karamell-4.png">
	<path
   id="path1077"
   d="M 130.984,390.665 C 105.845,370.543 94.623,339.823 89.649,317.603 l 16.649,-3.738 c 4.386,19.558 14.071,46.447 35.354,63.471 z"
   style="fill:#f77a6d"
   inkscape:connector-curvature="0" />
	<path
   id="path1079"
   d="m 86.509,299.75 c -0.811,-6.016 -1.28,-12.075 -1.391,-18.15 h 17.067 c 0.119,5.35 0.538,10.692 1.254,15.991 z"
   style="fill:#f77a6d"
   inkscape:connector-curvature="0" />
</g><path
   inkscape:export-ydpi="8.9527082"
   inkscape:export-xdpi="8.9527082"
   sodipodi:nodetypes="ccccccc"
   inkscape:connector-curvature="0"
   style="fill:#3d2a29;fill-opacity:1;stroke-width:0.83670765"
   d="m -2088.482,-202.733 v 17.92204 c 37.1235,52.18362 45.4956,76.79126 87.388,97.07796 h 142.558 c 47.7566,-20.2867 55.802,-58.84449 85.388,-97.07796 V -202.733 Z"
   id="path1083"
   inkscape:export-filename="/home/daniel/development/reveal-games/resources/barista 02/Karamell-4.png" /><path
   inkscape:export-ydpi="8.9527082"
   inkscape:export-xdpi="8.9527082"
   inkscape:connector-curvature="0"
   style="fill:#d9a653;fill-opacity:1;stroke:none;stroke-opacity:0.97071078"
   id="path1085"
   d="m -1788.734,-139.787 68.907,-15.906 c 31.983,-7.125 52.13,-38.818 45.013,-70.801 -7.125,-31.983 -38.818,-52.13 -70.801,-45.013 -1.69,0.375 -3.354,0.828 -5.001,1.348 V -284 c 0,-4.71 -3.823,-8.533 -8.533,-8.533 h -341.333 c -4.71,0 -8.533,3.823 -8.533,8.533 v 25.6 c 0.111,63.479 29.585,123.341 79.829,162.133 h -96.896 c -4.71,0 -8.533,3.823 -8.533,8.533 0.043,32.973 26.761,59.691 59.733,59.733 h 290.133 c 32.973,-0.043 59.691,-26.761 59.733,-59.733 0,-4.71 -3.823,-8.533 -8.533,-8.533 h -96.896 c 15.966,-12.373 30.02,-27.042 41.711,-43.52 z m 33.69,-76.638 19.541,-3.908 c 4.727,-1.007 9.378,2.005 10.385,6.733 0.964,4.54 -1.775,9.045 -6.246,10.274 l -29.5,8.431 c 2.33,-7.057 4.275,-14.225 5.82,-21.495 z m 46.6,-31.411 c 18.944,13.662 23.228,40.09 9.574,59.034 -5.99,8.311 -14.805,14.165 -24.789,16.478 l -52.241,12.057 c 2.62,-4.787 5.052,-9.677 7.287,-14.66 l 41.941,-11.989 c 13.722,-3.891 21.683,-18.167 17.792,-31.889 -3.686,-12.979 -16.734,-20.932 -29.961,-18.261 l -13.286,2.654 c 0.708,-5.879 1.118,-11.819 1.297,-17.801 l 4.267,-1.425 c 12.902,-4.369 27.119,-2.193 38.118,5.837 v -0.035 z m -76.305,202.769 h -290.133 c -20.267,-0.026 -37.734,-14.276 -41.813,-34.133 h 373.76 c -4.08,19.857 -21.547,34.108 -41.814,34.133 z m -76.075,-51.2 h -137.984 c -57.591,-33.715 -93.03,-95.403 -93.141,-162.133 v -17.067 h 324.267 v 17.067 c -0.111,66.731 -35.55,128.418 -93.142,162.133 z"
   inkscape:export-filename="/home/daniel/development/reveal-games/resources/barista 02/Karamell-4.png" /><path
   style="fill:#decd87"
   inkscape:export-ydpi="8.9527082"
   inkscape:export-xdpi="8.9527082"
   id="path1087"
   d="m -2053.703,-226.135 -16.649,3.738 c 4.975,22.187 16.213,52.907 41.335,73.062 l 10.667,-13.329 c -21.281,-17.025 -30.932,-43.913 -35.353,-63.471 z"
   inkscape:connector-curvature="0"
   inkscape:export-filename="/home/daniel/development/reveal-games/resources/barista 02/Karamell-4.png" /><path
   style="fill:#decd87"
   inkscape:export-ydpi="8.9527082"
   inkscape:export-xdpi="8.9527082"
   id="path1089"
   d="m -2057.816,-258.4 h -17.066 c 0.111,6.076 0.58,12.134 1.391,18.15 l 16.93,-2.167 c -0.717,-5.299 -1.135,-10.633 -1.255,-15.983 z"
   inkscape:connector-curvature="0"
   inkscape:export-filename="/home/daniel/development/reveal-games/resources/barista 02/Karamell-4.png" /><path
   sodipodi:nodetypes="ccccccczccc"
   inkscape:export-ydpi="8.9527082"
   inkscape:export-xdpi="8.9527082"
   id="path1091"
   d="m -1874.882,-540 v 8.533 c -45.7656,43.96246 -42.3316,58.93651 -48.667,89.6 17.6034,44.86869 75.3966,49.40276 79.6781,78.75477 3.4052,36.66341 56.5071,13.37668 59.1219,53.51123 h -266.133 c 0,-56.55 -34.15,-60.4 22.4,-60.4 65.5065,-16.58761 57.2446,1.17267 70.1752,-47.26548 12.9306,-48.43816 -10.0145,-50.44895 -10.4412,-97.13352 V -540 Z"
   style="fill:#f0e4d6"
   inkscape:connector-curvature="0"
   inkscape:export-filename="/home/daniel/development/reveal-games/resources/barista 02/Karamell-4.png" /><path
   style="stroke-width:0.94296551"
   inkscape:export-ydpi="8.9527082"
   inkscape:export-xdpi="8.9527082"
   id="path1093"
   d="m -2058.6648,-312.36446 h 15.36 c 0.054,-51.1923 37.846,-50.68145 84.4786,-50.74073 l -13.0616,-14.51339 c -14.1848,-15.76147 38.507,-25.7651 26.2952,-61.3483 -12.2118,-35.5832 -7.6019,-31.16253 -5.7954,-75.74028 V -540 h -15.36 v 25.29284 c -23.33,53.5656 5.3901,53.22752 5.7945,75.74127 0.4044,22.51375 -19.4482,35.02688 -10.9352,44.48607 l 13.0616,14.51339 c -55.1095,0.0672 -99.7757,7.1017 -99.8377,67.60197 z"
   inkscape:connector-curvature="0"
   sodipodi:nodetypes="cccszcccczscc"
   inkscape:export-filename="/home/daniel/development/reveal-games/resources/barista 02/Karamell-4.png" /><path
   sodipodi:nodetypes="ccccccccc"
   inkscape:export-ydpi="8.9527082"
   inkscape:export-xdpi="8.9527082"
   id="path1095"
   d="m -1902.482,-441.867 c 7.0817,-66.62534 21.1024,-49.94674 20.133,-98.133 h -17.067 c 4.9544,58.26267 -19.5491,40.99633 -20.133,98.133 -7.9743,49.38371 79.6477,43.17431 70.0762,78.39289 -8.795,30.73359 54.2864,32.27232 56.1908,53.87411 h 17.067 c -15.443,-43.241 -56.3065,-31.58258 -54.2072,-64.43729 1.1101,-18.85727 -74.1293,-11.80239 -72.0598,-67.82971 z"
   inkscape:connector-curvature="0"
   inkscape:export-filename="/home/daniel/development/reveal-games/resources/barista 02/Karamell-4.png" /><rect
   style="opacity:1;fill:none;fill-opacity:1;stroke:#000001;stroke-width:2.5620501;stroke-linecap:round;stroke-miterlimit:4;stroke-dasharray:7.68615104, 7.68615104;stroke-dashoffset:0;stroke-opacity:0.97071078"
   id="rect1097"
   width="512.12415"
   height="512.12408"
   x="-2700.2349"
   y="-539.84119"
   inkscape:export-xdpi="8.9527082"
   inkscape:export-ydpi="8.9527082"
   inkscape:export-filename="/home/daniel/development/reveal-games/resources/barista 02/Karamell-5.png" /><g
   transform="translate(-2700,-540)"
   id="g1103"
   style="fill:#d98e53;fill-opacity:1"
   inkscape:export-xdpi="8.9527082"
   inkscape:export-ydpi="8.9527082"
   inkscape:export-filename="/home/daniel/development/reveal-games/resources/barista 02/Karamell-5.png">
	<path
   style="fill:#d98e53;fill-opacity:1"
   d="m 375.251,324.267 47.582,-12.928 c 9.361,-1.877 18.475,4.19 20.352,13.559 0.222,1.118 0.341,2.261 0.333,3.396 v 0 c 0,7.723 -5.12,14.498 -12.544,16.623 l -62.123,16.324 -20.625,36.267 90.035,-21.487 c 23.057,-5.316 39.39,-25.847 39.39,-49.51 v 0 c 0,-28.066 -22.758,-50.816 -50.816,-50.816 -5.461,0 -10.889,0.879 -16.068,2.611 l -35.516,11.827 z"
   id="path1099"
   inkscape:connector-curvature="0" />
	<path
   style="fill:#d98e53;fill-opacity:1"
   d="m 33.918,452.267 h 392.533 v 0 0 c 0,28.279 -22.921,51.2 -51.2,51.2 v 0 H 85.118 c -28.28,0 -51.2,-22.921 -51.2,-51.2 z"
   id="path1101"
   inkscape:connector-curvature="0" />
</g><path
   inkscape:connector-curvature="0"
   style="fill:#d98c53;fill-opacity:1"
   d="m -2640.482,-284 v 25.6 c -0.017,70.63 37.948,135.825 99.388,170.667 h 142.558 c 61.44,-34.842 99.405,-100.036 99.388,-170.667 V -284 Z"
   id="path1105"
   inkscape:export-xdpi="8.9527082"
   inkscape:export-ydpi="8.9527082"
   inkscape:export-filename="/home/daniel/development/reveal-games/resources/barista 02/Karamell-5.png" /><path
   inkscape:connector-curvature="0"
   style="fill:#d9c653;fill-opacity:1"
   d="m -2384.482,-284 v 25.6 c 0.017,70.63 -37.948,135.825 -99.388,170.667 h 85.333 c 61.44,-34.842 99.405,-100.036 99.388,-170.667 V -284 Z"
   id="path1107"
   inkscape:export-xdpi="8.9527082"
   inkscape:export-ydpi="8.9527082"
   inkscape:export-filename="/home/daniel/development/reveal-games/resources/barista 02/Karamell-5.png" /><g
   transform="translate(-2700,-540)"
   id="g1113"
   inkscape:export-xdpi="8.9527082"
   inkscape:export-ydpi="8.9527082"
   inkscape:export-filename="/home/daniel/development/reveal-games/resources/barista 02/Karamell-5.png">
	<path
   inkscape:connector-curvature="0"
   style="fill:#f77a6d"
   d="M 130.984,390.665 C 105.845,370.543 94.623,339.823 89.649,317.603 l 16.649,-3.738 c 4.386,19.558 14.071,46.447 35.354,63.471 z"
   id="path1109" />
	<path
   inkscape:connector-curvature="0"
   style="fill:#f77a6d"
   d="m 86.509,299.75 c -0.811,-6.016 -1.28,-12.075 -1.391,-18.15 h 17.067 c 0.119,5.35 0.538,10.692 1.254,15.991 z"
   id="path1111" />
</g><path
   id="path1115"
   d="m -2628.482,-182.733 v 14.80516 c 37.1235,43.10821 45.4956,63.43626 87.388,80.19484 h 142.558 c 47.7566,-16.75858 55.802,-48.61067 85.388,-80.19484 V -182.733 Z"
   style="fill:#3d2a29;fill-opacity:1;stroke-width:0.76047796"
   inkscape:connector-curvature="0"
   sodipodi:nodetypes="ccccccc"
   inkscape:export-xdpi="8.9527082"
   inkscape:export-ydpi="8.9527082"
   inkscape:export-filename="/home/daniel/development/reveal-games/resources/barista 02/Karamell-5.png" /><path
   d="m -2328.734,-139.787 68.907,-15.906 c 31.983,-7.125 52.13,-38.818 45.013,-70.801 -7.125,-31.983 -38.818,-52.13 -70.801,-45.013 -1.69,0.375 -3.354,0.828 -5.001,1.348 V -284 c 0,-4.71 -3.823,-8.533 -8.533,-8.533 h -341.333 c -4.71,0 -8.533,3.823 -8.533,8.533 v 25.6 c 0.111,63.479 29.585,123.341 79.829,162.133 h -96.896 c -4.71,0 -8.533,3.823 -8.533,8.533 0.043,32.973 26.761,59.691 59.733,59.733 h 290.133 c 32.973,-0.043 59.691,-26.761 59.733,-59.733 0,-4.71 -3.823,-8.533 -8.533,-8.533 h -96.896 c 15.966,-12.373 30.02,-27.042 41.711,-43.52 z m 33.69,-76.638 19.541,-3.908 c 4.727,-1.007 9.378,2.005 10.385,6.733 0.964,4.54 -1.775,9.045 -6.246,10.274 l -29.5,8.431 c 2.33,-7.057 4.275,-14.225 5.82,-21.495 z m 46.6,-31.411 c 18.944,13.662 23.228,40.09 9.574,59.034 -5.99,8.311 -14.805,14.165 -24.789,16.478 l -52.241,12.057 c 2.62,-4.787 5.052,-9.677 7.287,-14.66 l 41.941,-11.989 c 13.722,-3.891 21.683,-18.167 17.792,-31.889 -3.686,-12.979 -16.734,-20.932 -29.961,-18.261 l -13.286,2.654 c 0.708,-5.879 1.118,-11.819 1.297,-17.801 l 4.267,-1.425 c 12.902,-4.369 27.119,-2.193 38.118,5.837 v -0.035 z m -76.305,202.769 h -290.133 c -20.267,-0.026 -37.734,-14.276 -41.813,-34.133 h 373.76 c -4.08,19.857 -21.547,34.108 -41.814,34.133 z m -76.075,-51.2 h -137.984 c -57.591,-33.715 -93.03,-95.403 -93.141,-162.133 v -17.067 h 324.267 v 17.067 c -0.111,66.731 -35.55,128.418 -93.142,162.133 z"
   id="path1117"
   style="fill:#d9a653;fill-opacity:1;stroke:none;stroke-opacity:0.97071078"
   inkscape:connector-curvature="0"
   inkscape:export-xdpi="8.9527082"
   inkscape:export-ydpi="8.9527082"
   inkscape:export-filename="/home/daniel/development/reveal-games/resources/barista 02/Karamell-5.png" /><path
   inkscape:connector-curvature="0"
   d="m -2593.703,-226.135 -16.649,3.738 c 4.975,22.187 16.213,52.907 41.335,73.062 l 10.667,-13.329 c -21.281,-17.025 -30.932,-43.913 -35.353,-63.471 z"
   id="path1119"
   inkscape:export-xdpi="8.9527082"
   inkscape:export-ydpi="8.9527082"
   style="fill:#decd87"
   inkscape:export-filename="/home/daniel/development/reveal-games/resources/barista 02/Karamell-5.png" /><path
   inkscape:connector-curvature="0"
   d="m -2597.816,-258.4 h -17.066 c 0.111,6.076 0.58,12.134 1.391,18.15 l 16.93,-2.167 c -0.717,-5.299 -1.135,-10.633 -1.255,-15.983 z"
   id="path1121"
   inkscape:export-xdpi="8.9527082"
   inkscape:export-ydpi="8.9527082"
   style="fill:#decd87"
   inkscape:export-filename="/home/daniel/development/reveal-games/resources/barista 02/Karamell-5.png" /><path
   inkscape:connector-curvature="0"
   style="fill:#f0e4d6"
   d="m -2434.882,-506 v 8.533 c -45.7656,43.96246 -22.3316,24.93651 -28.667,55.6 17.6034,44.86869 21.3966,49.40276 25.6781,78.75477 3.4052,36.66341 110.5071,13.37668 113.1219,53.51123 h -276.133 c 0,-56.55 -9.5491,-41.29132 51.9477,-49.64879 61.4967,-8.35747 37.6969,-9.57854 50.6275,-58.01669 12.9306,-48.43816 23.9855,-18.44895 23.5588,-65.13352 V -508 Z"
   id="path1123"
   inkscape:export-xdpi="8.9527082"
   inkscape:export-ydpi="8.9527082"
   sodipodi:nodetypes="cccccczzccc"
   inkscape:export-filename="/home/daniel/development/reveal-games/resources/barista 02/Karamell-5.png" /><path
   sodipodi:nodetypes="cczzcczzc"
   inkscape:connector-curvature="0"
   d="m -2614.6648,-312.36446 h 15.36 c 39.902,-52.24807 37.5386,-37.53024 69.8241,-43.7517 32.2856,-6.22147 46.6794,-20.07476 43.8881,-52.85072 -2.7913,-32.77596 20.2046,-52.564 20.2046,-99.03312 h -15.36 c -12.6474,38.41074 -21.1269,84.28827 -20.2055,106.85317 0.9214,22.5649 -28.2293,29.58388 -56.8722,35.0111 -28.6429,5.42722 -39.4192,8.40104 -56.8391,53.77127 z"
   id="path1125"
   inkscape:export-xdpi="8.9527082"
   inkscape:export-ydpi="8.9527082"
   style="stroke-width:0.94296551"
   inkscape:export-filename="/home/daniel/development/reveal-games/resources/barista 02/Karamell-5.png" /><path
   inkscape:connector-curvature="0"
   d="m -2438.349,-506 h -17.067 c -18.36,55.01805 0.8348,115.73203 5.9432,142.52589 5.1084,26.79386 114.2864,32.27232 116.1908,53.87411 h 17.067 c -15.443,-43.241 -116.3065,-31.58258 -114.2072,-64.43729 -18.2234,-55.60226 -7.5594,-115.46189 -7.9268,-131.96271 z"
   id="path1127"
   inkscape:export-xdpi="8.9527082"
   inkscape:export-ydpi="8.9527082"
   sodipodi:nodetypes="cczcccc"
   inkscape:export-filename="/home/daniel/development/reveal-games/resources/barista 02/Karamell-5.png" /><rect
   inkscape:export-ydpi="8.9527082"
   inkscape:export-xdpi="8.9527082"
   y="-539.84119"
   x="-3240.2349"
   height="512.12408"
   width="512.12415"
   id="rect1129"
   style="opacity:1;fill:none;fill-opacity:1;stroke:#000001;stroke-width:2.5620501;stroke-linecap:round;stroke-miterlimit:4;stroke-dasharray:7.68615104, 7.68615104;stroke-dashoffset:0;stroke-opacity:0.97071078"
   inkscape:export-filename="/home/daniel/development/reveal-games/resources/barista 02/Karamell-6.png" /><g
   inkscape:export-ydpi="8.9527082"
   inkscape:export-xdpi="8.9527082"
   style="fill:#d98e53;fill-opacity:1"
   id="g1135"
   transform="translate(-3240,-540)"
   inkscape:export-filename="/home/daniel/development/reveal-games/resources/barista 02/Karamell-6.png">
	<path
   inkscape:connector-curvature="0"
   id="path1131"
   d="m 375.251,324.267 47.582,-12.928 c 9.361,-1.877 18.475,4.19 20.352,13.559 0.222,1.118 0.341,2.261 0.333,3.396 v 0 c 0,7.723 -5.12,14.498 -12.544,16.623 l -62.123,16.324 -20.625,36.267 90.035,-21.487 c 23.057,-5.316 39.39,-25.847 39.39,-49.51 v 0 c 0,-28.066 -22.758,-50.816 -50.816,-50.816 -5.461,0 -10.889,0.879 -16.068,2.611 l -35.516,11.827 z"
   style="fill:#d98e53;fill-opacity:1" />
	<path
   inkscape:connector-curvature="0"
   id="path1133"
   d="m 33.918,452.267 h 392.533 v 0 0 c 0,28.279 -22.921,51.2 -51.2,51.2 v 0 H 85.118 c -28.28,0 -51.2,-22.921 -51.2,-51.2 z"
   style="fill:#d98e53;fill-opacity:1" />
</g><path
   inkscape:export-ydpi="8.9527082"
   inkscape:export-xdpi="8.9527082"
   id="path1137"
   d="m -3180.482,-284 v 25.6 c -0.017,70.63 37.948,135.825 99.388,170.667 h 142.558 c 61.44,-34.842 99.405,-100.036 99.388,-170.667 V -284 Z"
   style="fill:#d98c53;fill-opacity:1"
   inkscape:connector-curvature="0"
   inkscape:export-filename="/home/daniel/development/reveal-games/resources/barista 02/Karamell-6.png" /><path
   inkscape:export-ydpi="8.9527082"
   inkscape:export-xdpi="8.9527082"
   id="path1139"
   d="m -2924.482,-284 v 25.6 c 0.017,70.63 -37.948,135.825 -99.388,170.667 h 85.333 c 61.44,-34.842 99.405,-100.036 99.388,-170.667 V -284 Z"
   style="fill:#d9c653;fill-opacity:1"
   inkscape:connector-curvature="0"
   inkscape:export-filename="/home/daniel/development/reveal-games/resources/barista 02/Karamell-6.png" /><g
   inkscape:export-ydpi="8.9527082"
   inkscape:export-xdpi="8.9527082"
   id="g1145"
   transform="translate(-3240,-540)"
   inkscape:export-filename="/home/daniel/development/reveal-games/resources/barista 02/Karamell-6.png">
	<path
   id="path1141"
   d="M 130.984,390.665 C 105.845,370.543 94.623,339.823 89.649,317.603 l 16.649,-3.738 c 4.386,19.558 14.071,46.447 35.354,63.471 z"
   style="fill:#f77a6d"
   inkscape:connector-curvature="0" />
	<path
   id="path1143"
   d="m 86.509,299.75 c -0.811,-6.016 -1.28,-12.075 -1.391,-18.15 h 17.067 c 0.119,5.35 0.538,10.692 1.254,15.991 z"
   style="fill:#f77a6d"
   inkscape:connector-curvature="0" />
</g><path
   inkscape:export-ydpi="8.9527082"
   inkscape:export-xdpi="8.9527082"
   sodipodi:nodetypes="ccccccc"
   inkscape:connector-curvature="0"
   style="fill:#3d2a29;fill-opacity:1;stroke-width:0.67570239"
   d="m -3148.482,-162.733 v 11.68828 c 37.1235,34.0328 25.4956,50.08126 67.388,63.31172 h 142.558 c 47.7566,-13.23046 39.802,-38.37684 69.388,-63.31172 V -162.733 Z"
   id="path1147"
   inkscape:export-filename="/home/daniel/development/reveal-games/resources/barista 02/Karamell-6.png" /><path
   inkscape:export-ydpi="8.9527082"
   inkscape:export-xdpi="8.9527082"
   inkscape:connector-curvature="0"
   style="fill:#d9a653;fill-opacity:1;stroke:none;stroke-opacity:0.97071078"
   id="path1149"
   d="m -2868.734,-139.787 68.907,-15.906 c 31.983,-7.125 52.13,-38.818 45.013,-70.801 -7.125,-31.983 -38.818,-52.13 -70.801,-45.013 -1.69,0.375 -3.354,0.828 -5.001,1.348 V -284 c 0,-4.71 -3.823,-8.533 -8.533,-8.533 h -341.333 c -4.71,0 -8.533,3.823 -8.533,8.533 v 25.6 c 0.111,63.479 29.585,123.341 79.829,162.133 h -96.896 c -4.71,0 -8.533,3.823 -8.533,8.533 0.043,32.973 26.761,59.691 59.733,59.733 h 290.133 c 32.973,-0.043 59.691,-26.761 59.733,-59.733 0,-4.71 -3.823,-8.533 -8.533,-8.533 h -96.896 c 15.966,-12.373 30.02,-27.042 41.711,-43.52 z m 33.69,-76.638 19.541,-3.908 c 4.727,-1.007 9.378,2.005 10.385,6.733 0.964,4.54 -1.775,9.045 -6.246,10.274 l -29.5,8.431 c 2.33,-7.057 4.275,-14.225 5.82,-21.495 z m 46.6,-31.411 c 18.944,13.662 23.228,40.09 9.574,59.034 -5.99,8.311 -14.805,14.165 -24.789,16.478 l -52.241,12.057 c 2.62,-4.787 5.052,-9.677 7.287,-14.66 l 41.941,-11.989 c 13.722,-3.891 21.683,-18.167 17.792,-31.889 -3.686,-12.979 -16.734,-20.932 -29.961,-18.261 l -13.286,2.654 c 0.708,-5.879 1.118,-11.819 1.297,-17.801 l 4.267,-1.425 c 12.902,-4.369 27.119,-2.193 38.118,5.837 v -0.035 z m -76.305,202.769 h -290.133 c -20.267,-0.026 -37.734,-14.276 -41.813,-34.133 h 373.76 c -4.08,19.857 -21.547,34.108 -41.814,34.133 z m -76.075,-51.2 h -137.984 c -57.591,-33.715 -93.03,-95.403 -93.141,-162.133 v -17.067 h 324.267 v 17.067 c -0.111,66.731 -35.55,128.418 -93.142,162.133 z"
   inkscape:export-filename="/home/daniel/development/reveal-games/resources/barista 02/Karamell-6.png" /><path
   style="fill:#decd87"
   inkscape:export-ydpi="8.9527082"
   inkscape:export-xdpi="8.9527082"
   id="path1151"
   d="m -3133.703,-226.135 -16.649,3.738 c 4.975,22.187 16.213,52.907 41.335,73.062 l 10.667,-13.329 c -21.281,-17.025 -30.932,-43.913 -35.353,-63.471 z"
   inkscape:connector-curvature="0"
   inkscape:export-filename="/home/daniel/development/reveal-games/resources/barista 02/Karamell-6.png" /><path
   style="fill:#decd87"
   inkscape:export-ydpi="8.9527082"
   inkscape:export-xdpi="8.9527082"
   id="path1153"
   d="m -3137.816,-258.4 h -17.066 c 0.111,6.076 0.58,12.134 1.391,18.15 l 16.93,-2.167 c -0.717,-5.299 -1.135,-10.633 -1.255,-15.983 z"
   inkscape:connector-curvature="0"
   inkscape:export-filename="/home/daniel/development/reveal-games/resources/barista 02/Karamell-6.png" /><path
   sodipodi:nodetypes="czcczccc"
   inkscape:export-ydpi="8.9527082"
   inkscape:export-xdpi="8.9527082"
   id="path1155"
   d="m -2993.7752,-401.79432 c 5.8658,39.31961 8.1727,45.18172 41.3162,59.20712 33.1436,14.0254 55.7737,-0.30667 87.71,32.9862 h -276.133 c -0.697,-26.73503 34.6416,-23.93129 70.518,-29.12376 35.8764,-5.19247 34.7647,-27.17142 44.7632,-61.92622 13.3595,-51.90639 15.7397,-13.39948 15.7397,-61.41204 4.1328,44.45832 10.9944,34.40027 16.0859,60.2687 z"
   style="fill:#f0e4d6"
   inkscape:connector-curvature="0"
   inkscape:export-filename="/home/daniel/development/reveal-games/resources/barista 02/Karamell-6.png" /><path
   style="stroke-width:0.94296551"
   inkscape:export-ydpi="8.9527082"
   inkscape:export-xdpi="8.9527082"
   id="path1157"
   d="m -3154.6648,-312.36446 h 15.36 c 15.4674,-29.76827 42.4255,-13.62071 69.8241,-23.7517 27.3986,-10.13099 29.0865,-12.70805 43.8881,-30.82327 14.8016,-18.11522 20.2046,-42.59145 20.2046,-89.06057 h -5.36 c -12.6474,38.41074 -4.6471,63.70022 -21.3186,78.44606 -16.6715,14.74584 -20.5007,27.49341 -49.1436,32.92063 -28.6429,5.42722 -56.0347,-13.10138 -73.4546,32.26885 z"
   inkscape:connector-curvature="0"
   sodipodi:nodetypes="cczzcczzc"
   inkscape:export-filename="/home/daniel/development/reveal-games/resources/barista 02/Karamell-6.png" /><path
   sodipodi:nodetypes="cczcczc"
   inkscape:export-ydpi="8.9527082"
   inkscape:export-xdpi="8.9527082"
   id="path1159"
   d="m -2996.349,-454 h -9.067 c -18.36,55.01805 12.8832,84.23287 31.8075,104.11878 18.9243,19.8859 99.0991,18.34093 100.3265,40.28122 h 17.067 c -15.443,-43.241 -74.2387,-26.90643 -112.2524,-58.57299 -38.0138,-31.66656 -27.5142,-69.32619 -27.8816,-85.82701 z"
   inkscape:connector-curvature="0"
   inkscape:export-filename="/home/daniel/development/reveal-games/resources/barista 02/Karamell-6.png" /><rect
   style="opacity:1;fill:none;fill-opacity:1;stroke:#000001;stroke-width:2.5620501;stroke-linecap:round;stroke-miterlimit:4;stroke-dasharray:7.68615104, 7.68615104;stroke-dashoffset:0;stroke-opacity:0.97071078"
   id="rect1161"
   width="512.12415"
   height="512.12408"
   x="-3780.2349"
   y="-539.84119"
   inkscape:export-xdpi="8.9527082"
   inkscape:export-ydpi="8.9527082"
   inkscape:export-filename="/home/daniel/development/reveal-games/resources/barista 02/Karamell-7.png" /><g
   transform="translate(-3780,-540)"
   id="g1167"
   style="fill:#d98e53;fill-opacity:1"
   inkscape:export-xdpi="8.9527082"
   inkscape:export-ydpi="8.9527082"
   inkscape:export-filename="/home/daniel/development/reveal-games/resources/barista 02/Karamell-7.png">
	<path
   style="fill:#d98e53;fill-opacity:1"
   d="m 375.251,324.267 47.582,-12.928 c 9.361,-1.877 18.475,4.19 20.352,13.559 0.222,1.118 0.341,2.261 0.333,3.396 v 0 c 0,7.723 -5.12,14.498 -12.544,16.623 l -62.123,16.324 -20.625,36.267 90.035,-21.487 c 23.057,-5.316 39.39,-25.847 39.39,-49.51 v 0 c 0,-28.066 -22.758,-50.816 -50.816,-50.816 -5.461,0 -10.889,0.879 -16.068,2.611 l -35.516,11.827 z"
   id="path1163"
   inkscape:connector-curvature="0" />
	<path
   style="fill:#d98e53;fill-opacity:1"
   d="m 33.918,452.267 h 392.533 v 0 0 c 0,28.279 -22.921,51.2 -51.2,51.2 v 0 H 85.118 c -28.28,0 -51.2,-22.921 -51.2,-51.2 z"
   id="path1165"
   inkscape:connector-curvature="0" />
</g><path
   inkscape:connector-curvature="0"
   style="fill:#d98c53;fill-opacity:1"
   d="m -3720.482,-284 v 25.6 c -0.017,70.63 37.948,135.825 99.388,170.667 h 142.558 c 61.44,-34.842 99.405,-100.036 99.388,-170.667 V -284 Z"
   id="path1169"
   inkscape:export-xdpi="8.9527082"
   inkscape:export-ydpi="8.9527082"
   inkscape:export-filename="/home/daniel/development/reveal-games/resources/barista 02/Karamell-7.png" /><path
   inkscape:connector-curvature="0"
   style="fill:#d9c653;fill-opacity:1"
   d="m -3464.482,-284 v 25.6 c 0.017,70.63 -37.948,135.825 -99.388,170.667 h 85.333 c 61.44,-34.842 99.405,-100.036 99.388,-170.667 V -284 Z"
   id="path1171"
   inkscape:export-xdpi="8.9527082"
   inkscape:export-ydpi="8.9527082"
   inkscape:export-filename="/home/daniel/development/reveal-games/resources/barista 02/Karamell-7.png" /><g
   transform="translate(-3780,-540)"
   id="g1177"
   inkscape:export-xdpi="8.9527082"
   inkscape:export-ydpi="8.9527082"
   inkscape:export-filename="/home/daniel/development/reveal-games/resources/barista 02/Karamell-7.png">
	<path
   inkscape:connector-curvature="0"
   style="fill:#f77a6d"
   d="M 130.984,390.665 C 105.845,370.543 94.623,339.823 89.649,317.603 l 16.649,-3.738 c 4.386,19.558 14.071,46.447 35.354,63.471 z"
   id="path1173" />
	<path
   inkscape:connector-curvature="0"
   style="fill:#f77a6d"
   d="m 86.509,299.75 c -0.811,-6.016 -1.28,-12.075 -1.391,-18.15 h 17.067 c 0.119,5.35 0.538,10.692 1.254,15.991 z"
   id="path1175" />
</g><path
   id="path1179"
   d="m -3688.482,-141.733 v 8.41556 c 37.1235,24.50362 25.4956,36.058509 67.388,45.58444 h 142.558 c 47.7566,-9.525931 39.802,-27.63132 69.388,-45.58444 v -8.41556 z"
   style="fill:#3d2a29;fill-opacity:1;stroke-width:0.57335252"
   inkscape:connector-curvature="0"
   sodipodi:nodetypes="ccccccc"
   inkscape:export-xdpi="8.9527082"
   inkscape:export-ydpi="8.9527082"
   inkscape:export-filename="/home/daniel/development/reveal-games/resources/barista 02/Karamell-7.png" /><path
   d="m -3408.734,-139.787 68.907,-15.906 c 31.983,-7.125 52.13,-38.818 45.013,-70.801 -7.125,-31.983 -38.818,-52.13 -70.801,-45.013 -1.69,0.375 -3.354,0.828 -5.001,1.348 V -284 c 0,-4.71 -3.823,-8.533 -8.533,-8.533 h -341.333 c -4.71,0 -8.533,3.823 -8.533,8.533 v 25.6 c 0.111,63.479 29.585,123.341 79.829,162.133 h -96.896 c -4.71,0 -8.533,3.823 -8.533,8.533 0.043,32.973 26.761,59.691 59.733,59.733 h 290.133 c 32.973,-0.043 59.691,-26.761 59.733,-59.733 0,-4.71 -3.823,-8.533 -8.533,-8.533 h -96.896 c 15.966,-12.373 30.02,-27.042 41.711,-43.52 z m 33.69,-76.638 19.541,-3.908 c 4.727,-1.007 9.378,2.005 10.385,6.733 0.964,4.54 -1.775,9.045 -6.246,10.274 l -29.5,8.431 c 2.33,-7.057 4.275,-14.225 5.82,-21.495 z m 46.6,-31.411 c 18.944,13.662 23.228,40.09 9.574,59.034 -5.99,8.311 -14.805,14.165 -24.789,16.478 l -52.241,12.057 c 2.62,-4.787 5.052,-9.677 7.287,-14.66 l 41.941,-11.989 c 13.722,-3.891 21.683,-18.167 17.792,-31.889 -3.686,-12.979 -16.734,-20.932 -29.961,-18.261 l -13.286,2.654 c 0.708,-5.879 1.118,-11.819 1.297,-17.801 l 4.267,-1.425 c 12.902,-4.369 27.119,-2.193 38.118,5.837 v -0.035 z m -76.305,202.769 h -290.133 c -20.267,-0.026 -37.734,-14.276 -41.813,-34.133 h 373.76 c -4.08,19.857 -21.547,34.108 -41.814,34.133 z m -76.075,-51.2 h -137.984 c -57.591,-33.715 -93.03,-95.403 -93.141,-162.133 v -17.067 h 324.267 v 17.067 c -0.111,66.731 -35.55,128.418 -93.142,162.133 z"
   id="path1181"
   style="fill:#d9a653;fill-opacity:1;stroke:none;stroke-opacity:0.97071078"
   inkscape:connector-curvature="0"
   inkscape:export-xdpi="8.9527082"
   inkscape:export-ydpi="8.9527082"
   inkscape:export-filename="/home/daniel/development/reveal-games/resources/barista 02/Karamell-7.png" /><path
   inkscape:connector-curvature="0"
   d="m -3673.703,-226.135 -16.649,3.738 c 4.975,22.187 16.213,52.907 41.335,73.062 l 10.667,-13.329 c -21.281,-17.025 -30.932,-43.913 -35.353,-63.471 z"
   id="path1183"
   inkscape:export-xdpi="8.9527082"
   inkscape:export-ydpi="8.9527082"
   style="fill:#decd87"
   inkscape:export-filename="/home/daniel/development/reveal-games/resources/barista 02/Karamell-7.png" /><path
   inkscape:connector-curvature="0"
   d="m -3677.816,-258.4 h -17.066 c 0.111,6.076 0.58,12.134 1.391,18.15 l 16.93,-2.167 c -0.717,-5.299 -1.135,-10.633 -1.255,-15.983 z"
   id="path1185"
   inkscape:export-xdpi="8.9527082"
   inkscape:export-ydpi="8.9527082"
   style="fill:#decd87"
   inkscape:export-filename="/home/daniel/development/reveal-games/resources/barista 02/Karamell-7.png" /><path
   inkscape:connector-curvature="0"
   style="fill:#f0e4d6"
   d="m -3543.549,-371.49546 c 5.8658,39.31961 -5.5107,28.56622 27.6328,42.59162 33.1436,14.0254 79.2309,-13.99003 111.1672,19.30284 h -276.133 c -0.697,-26.73503 43.438,-10.24793 79.3144,-15.4404 35.8764,-5.19247 24.9909,-8.60116 34.9894,-43.35596 13.3595,-51.90639 12.8076,5.17079 12.8076,-42.84177 4.1328,44.45832 5.1301,13.87524 10.2216,39.74367 z"
   id="path1187"
   inkscape:export-xdpi="8.9527082"
   inkscape:export-ydpi="8.9527082"
   sodipodi:nodetypes="czcczccc"
   inkscape:export-filename="/home/daniel/development/reveal-games/resources/barista 02/Karamell-7.png" /><path
   sodipodi:nodetypes="cczzcczzc"
   inkscape:connector-curvature="0"
   d="m -3694.6648,-312.36446 h 15.36 c 15.4674,-29.76827 42.4255,-1.62071 69.8241,-11.7517 27.3986,-10.13099 29.0865,9.29195 43.8881,-8.82327 14.8016,-18.11522 20.2046,-30.59145 20.2046,-77.06057 h -5.36 c -12.6474,38.41074 -4.6471,51.70022 -21.3186,66.44606 -16.6715,14.74584 -20.5007,5.49341 -49.1436,10.92063 -28.6429,5.42722 -56.0347,-25.10138 -73.4546,20.26885 z"
   id="path1189"
   inkscape:export-xdpi="8.9527082"
   inkscape:export-ydpi="8.9527082"
   style="stroke-width:0.94296551"
   inkscape:export-filename="/home/daniel/development/reveal-games/resources/barista 02/Karamell-7.png" /><path
   inkscape:connector-curvature="0"
   d="m -3540.349,-414 h -9.067 c -18.36,55.01805 10.8832,72.23287 29.8075,92.11878 18.9243,19.8859 105.0991,-9.65907 106.3265,12.28122 h 17.067 c -15.443,-43.241 -80.2387,1.09357 -118.2524,-30.57299 -38.0138,-31.66656 -25.5142,-57.32619 -25.8816,-73.82701 z"
   id="path1191"
   inkscape:export-xdpi="8.9527082"
   inkscape:export-ydpi="8.9527082"
   sodipodi:nodetypes="cczcczc"
   inkscape:export-filename="/home/daniel/development/reveal-games/resources/barista 02/Karamell-7.png" /><rect
   inkscape:export-ydpi="8.9527082"
   inkscape:export-xdpi="8.9527082"
   y="-539.84119"
   x="-4320.2349"
   height="512.12408"
   width="512.12415"
   id="rect1193"
   style="opacity:1;fill:none;fill-opacity:1;stroke:#000001;stroke-width:2.5620501;stroke-linecap:round;stroke-miterlimit:4;stroke-dasharray:7.68615104, 7.68615104;stroke-dashoffset:0;stroke-opacity:0.97071078"
   inkscape:export-filename="/home/daniel/development/reveal-games/resources/barista 02/Karamell-8.png" /><g
   inkscape:export-ydpi="8.9527082"
   inkscape:export-xdpi="8.9527082"
   style="fill:#d98e53;fill-opacity:1"
   id="g1199"
   transform="translate(-4320,-540)"
   inkscape:export-filename="/home/daniel/development/reveal-games/resources/barista 02/Karamell-8.png">
	<path
   inkscape:connector-curvature="0"
   id="path1195"
   d="m 375.251,324.267 47.582,-12.928 c 9.361,-1.877 18.475,4.19 20.352,13.559 0.222,1.118 0.341,2.261 0.333,3.396 v 0 c 0,7.723 -5.12,14.498 -12.544,16.623 l -62.123,16.324 -20.625,36.267 90.035,-21.487 c 23.057,-5.316 39.39,-25.847 39.39,-49.51 v 0 c 0,-28.066 -22.758,-50.816 -50.816,-50.816 -5.461,0 -10.889,0.879 -16.068,2.611 l -35.516,11.827 z"
   style="fill:#d98e53;fill-opacity:1" />
	<path
   inkscape:connector-curvature="0"
   id="path1197"
   d="m 33.918,452.267 h 392.533 v 0 0 c 0,28.279 -22.921,51.2 -51.2,51.2 v 0 H 85.118 c -28.28,0 -51.2,-22.921 -51.2,-51.2 z"
   style="fill:#d98e53;fill-opacity:1" />
</g><path
   inkscape:export-ydpi="8.9527082"
   inkscape:export-xdpi="8.9527082"
   id="path1201"
   d="m -4260.482,-284 v 25.6 c -0.017,70.63 37.948,135.825 99.388,170.667 h 142.558 c 61.44,-34.842 99.405,-100.036 99.388,-170.667 V -284 Z"
   style="fill:#d98c53;fill-opacity:1"
   inkscape:connector-curvature="0"
   inkscape:export-filename="/home/daniel/development/reveal-games/resources/barista 02/Karamell-8.png" /><path
   inkscape:export-ydpi="8.9527082"
   inkscape:export-xdpi="8.9527082"
   id="path1203"
   d="m -4004.482,-284 v 25.6 c 0.017,70.63 -37.948,135.825 -99.388,170.667 h 85.333 c 61.44,-34.842 99.405,-100.036 99.388,-170.667 V -284 Z"
   style="fill:#d9c653;fill-opacity:1"
   inkscape:connector-curvature="0"
   inkscape:export-filename="/home/daniel/development/reveal-games/resources/barista 02/Karamell-8.png" /><g
   inkscape:export-ydpi="8.9527082"
   inkscape:export-xdpi="8.9527082"
   id="g1209"
   transform="translate(-4320,-540)"
   inkscape:export-filename="/home/daniel/development/reveal-games/resources/barista 02/Karamell-8.png">
	<path
   id="path1205"
   d="M 130.984,390.665 C 105.845,370.543 94.623,339.823 89.649,317.603 l 16.649,-3.738 c 4.386,19.558 14.071,46.447 35.354,63.471 z"
   style="fill:#f77a6d"
   inkscape:connector-curvature="0" />
	<path
   id="path1207"
   d="m 86.509,299.75 c -0.811,-6.016 -1.28,-12.075 -1.391,-18.15 h 17.067 c 0.119,5.35 0.538,10.692 1.254,15.991 z"
   style="fill:#f77a6d"
   inkscape:connector-curvature="0" />
</g><path
   inkscape:export-ydpi="8.9527082"
   inkscape:export-xdpi="8.9527082"
   sodipodi:nodetypes="ccccccc"
   inkscape:connector-curvature="0"
   style="fill:#3d2a29;fill-opacity:1;stroke-width:0.39011696"
   d="m -4192.482,-112.733 v 3.89609 c 37.1235,11.344271 -10.5044,16.693757 31.388,21.10391 h 142.558 c 47.7566,-4.410153 1.802,-12.79228 31.388,-21.10391 v -3.89609 z"
   id="path1211"
   inkscape:export-filename="/home/daniel/development/reveal-games/resources/barista 02/Karamell-8.png" /><path
   inkscape:export-ydpi="8.9527082"
   inkscape:export-xdpi="8.9527082"
   inkscape:connector-curvature="0"
   style="fill:#d9a653;fill-opacity:1;stroke:none;stroke-opacity:0.97071078"
   id="path1213"
   d="m -3948.734,-139.787 68.907,-15.906 c 31.983,-7.125 52.13,-38.818 45.013,-70.801 -7.125,-31.983 -38.818,-52.13 -70.801,-45.013 -1.69,0.375 -3.354,0.828 -5.001,1.348 V -284 c 0,-4.71 -3.823,-8.533 -8.533,-8.533 h -341.333 c -4.71,0 -8.533,3.823 -8.533,8.533 v 25.6 c 0.111,63.479 29.585,123.341 79.829,162.133 h -96.896 c -4.71,0 -8.533,3.823 -8.533,8.533 0.043,32.973 26.761,59.691 59.733,59.733 h 290.133 c 32.973,-0.043 59.691,-26.761 59.733,-59.733 0,-4.71 -3.823,-8.533 -8.533,-8.533 h -96.896 c 15.966,-12.373 30.02,-27.042 41.711,-43.52 z m 33.69,-76.638 19.541,-3.908 c 4.727,-1.007 9.378,2.005 10.385,6.733 0.964,4.54 -1.775,9.045 -6.246,10.274 l -29.5,8.431 c 2.33,-7.057 4.275,-14.225 5.82,-21.495 z m 46.6,-31.411 c 18.944,13.662 23.228,40.09 9.574,59.034 -5.99,8.311 -14.805,14.165 -24.789,16.478 l -52.241,12.057 c 2.62,-4.787 5.052,-9.677 7.287,-14.66 l 41.941,-11.989 c 13.722,-3.891 21.683,-18.167 17.792,-31.889 -3.686,-12.979 -16.734,-20.932 -29.961,-18.261 l -13.286,2.654 c 0.708,-5.879 1.118,-11.819 1.297,-17.801 l 4.267,-1.425 c 12.902,-4.369 27.119,-2.193 38.118,5.837 v -0.035 z m -76.305,202.769 h -290.133 c -20.267,-0.026 -37.734,-14.276 -41.813,-34.133 h 373.76 c -4.08,19.857 -21.547,34.108 -41.814,34.133 z m -76.075,-51.2 h -137.984 c -57.591,-33.715 -93.03,-95.403 -93.141,-162.133 v -17.067 h 324.267 v 17.067 c -0.111,66.731 -35.55,128.418 -93.142,162.133 z"
   inkscape:export-filename="/home/daniel/development/reveal-games/resources/barista 02/Karamell-8.png" /><path
   style="fill:#decd87"
   inkscape:export-ydpi="8.9527082"
   inkscape:export-xdpi="8.9527082"
   id="path1215"
   d="m -4213.703,-226.135 -16.649,3.738 c 4.975,22.187 16.213,52.907 41.335,73.062 l 10.667,-13.329 c -21.281,-17.025 -30.932,-43.913 -35.353,-63.471 z"
   inkscape:connector-curvature="0"
   inkscape:export-filename="/home/daniel/development/reveal-games/resources/barista 02/Karamell-8.png" /><path
   style="fill:#decd87"
   inkscape:export-ydpi="8.9527082"
   inkscape:export-xdpi="8.9527082"
   id="path1217"
   d="m -4217.816,-258.4 h -17.066 c 0.111,6.076 0.58,12.134 1.391,18.15 l 16.93,-2.167 c -0.717,-5.299 -1.135,-10.633 -1.255,-15.983 z"
   inkscape:connector-curvature="0"
   inkscape:export-filename="/home/daniel/development/reveal-games/resources/barista 02/Karamell-8.png" /><path
   sodipodi:nodetypes="ccccc"
   inkscape:export-ydpi="8.9527082"
   inkscape:export-xdpi="8.9527082"
   id="path1219"
   d="m -4055.9162,-328.90384 c 33.1436,14.0254 79.2309,-13.99003 111.1672,19.30284 h -276.133 c -0.697,-26.73503 43.438,-10.24793 79.3144,-15.4404 80.3742,-46.44882 7.9953,-49.88605 85.6514,-3.86244 z"
   style="fill:#f0e4d6"
   inkscape:connector-curvature="0"
   inkscape:export-filename="/home/daniel/development/reveal-games/resources/barista 02/Karamell-8.png" /><path
   style="stroke-width:0.94296551"
   inkscape:export-ydpi="8.9527082"
   inkscape:export-xdpi="8.9527082"
   id="path1221"
   d="m -4234.6648,-312.36446 h 15.36 c 15.4674,-29.76827 42.4255,-1.62071 69.8241,-11.7517 27.3986,-10.13099 29.0865,9.29195 43.8881,-8.82327 14.8016,-18.11522 20.2046,21.40855 20.2046,-25.06057 h -5.36 c -12.6474,38.41074 -4.6471,-0.29978 -21.3186,14.44606 -16.6715,14.74584 -20.5007,5.49341 -49.1436,10.92063 -28.6429,5.42722 -56.0347,-25.10138 -73.4546,20.26885 z"
   inkscape:connector-curvature="0"
   sodipodi:nodetypes="cczzcczzc"
   inkscape:export-filename="/home/daniel/development/reveal-games/resources/barista 02/Karamell-8.png" /><path
   sodipodi:nodetypes="cczcczc"
   inkscape:export-ydpi="8.9527082"
   inkscape:export-xdpi="8.9527082"
   id="path1223"
   d="m -4080.349,-358 h -9.067 c -18.36,55.01805 10.8832,16.23287 29.8075,36.11878 18.9243,19.8859 105.0991,-9.65907 106.3265,12.28122 h 17.067 c -15.443,-43.241 -80.2387,1.09357 -118.2524,-30.57299 -38.0138,-31.66656 -25.5142,-1.32619 -25.8816,-17.82701 z"
   inkscape:connector-curvature="0"
   inkscape:export-filename="/home/daniel/development/reveal-games/resources/barista 02/Karamell-8.png" /><rect
   style="opacity:1;fill:none;fill-opacity:1;stroke:#000001;stroke-width:2.5620501;stroke-linecap:round;stroke-miterlimit:4;stroke-dasharray:7.68615104, 7.68615104;stroke-dashoffset:0;stroke-opacity:0.97071078"
   id="rect1225"
   width="512.12415"
   height="512.12408"
   x="-4860.2349"
   y="-539.84119"
   inkscape:export-xdpi="8.9527082"
   inkscape:export-ydpi="8.9527082"
   inkscape:export-filename="/home/daniel/development/reveal-games/resources/barista 02/Karamell-9.png" /><g
   transform="translate(-4860,-540)"
   id="g1231"
   style="fill:#d98e53;fill-opacity:1"
   inkscape:export-xdpi="8.9527082"
   inkscape:export-ydpi="8.9527082"
   inkscape:export-filename="/home/daniel/development/reveal-games/resources/barista 02/Karamell-9.png">
	<path
   style="fill:#d98e53;fill-opacity:1"
   d="m 375.251,324.267 47.582,-12.928 c 9.361,-1.877 18.475,4.19 20.352,13.559 0.222,1.118 0.341,2.261 0.333,3.396 v 0 c 0,7.723 -5.12,14.498 -12.544,16.623 l -62.123,16.324 -20.625,36.267 90.035,-21.487 c 23.057,-5.316 39.39,-25.847 39.39,-49.51 v 0 c 0,-28.066 -22.758,-50.816 -50.816,-50.816 -5.461,0 -10.889,0.879 -16.068,2.611 l -35.516,11.827 z"
   id="path1227"
   inkscape:connector-curvature="0" />
	<path
   style="fill:#d98e53;fill-opacity:1"
   d="m 33.918,452.267 h 392.533 v 0 0 c 0,28.279 -22.921,51.2 -51.2,51.2 v 0 H 85.118 c -28.28,0 -51.2,-22.921 -51.2,-51.2 z"
   id="path1229"
   inkscape:connector-curvature="0" />
</g><path
   inkscape:connector-curvature="0"
   style="fill:#d98c53;fill-opacity:1"
   d="m -4800.482,-284 v 25.6 c -0.017,70.63 37.948,135.825 99.388,170.667 h 142.558 c 61.44,-34.842 99.405,-100.036 99.388,-170.667 V -284 Z"
   id="path1233"
   inkscape:export-xdpi="8.9527082"
   inkscape:export-ydpi="8.9527082"
   inkscape:export-filename="/home/daniel/development/reveal-games/resources/barista 02/Karamell-9.png" /><path
   inkscape:connector-curvature="0"
   style="fill:#d9c653;fill-opacity:1"
   d="m -4544.482,-284 v 25.6 c 0.017,70.63 -37.948,135.825 -99.388,170.667 h 85.333 c 61.44,-34.842 99.405,-100.036 99.388,-170.667 V -284 Z"
   id="path1235"
   inkscape:export-xdpi="8.9527082"
   inkscape:export-ydpi="8.9527082"
   inkscape:export-filename="/home/daniel/development/reveal-games/resources/barista 02/Karamell-9.png" /><g
   transform="translate(-4860,-540)"
   id="g1241"
   inkscape:export-xdpi="8.9527082"
   inkscape:export-ydpi="8.9527082"
   inkscape:export-filename="/home/daniel/development/reveal-games/resources/barista 02/Karamell-9.png">
	<path
   inkscape:connector-curvature="0"
   style="fill:#f77a6d"
   d="M 130.984,390.665 C 105.845,370.543 94.623,339.823 89.649,317.603 l 16.649,-3.738 c 4.386,19.558 14.071,46.447 35.354,63.471 z"
   id="path1237" />
	<path
   inkscape:connector-curvature="0"
   style="fill:#f77a6d"
   d="m 86.509,299.75 c -0.811,-6.016 -1.28,-12.075 -1.391,-18.15 h 17.067 c 0.119,5.35 0.538,10.692 1.254,15.991 z"
   id="path1239" />
</g><path
   d="m -4488.734,-139.787 68.907,-15.906 c 31.983,-7.125 52.13,-38.818 45.013,-70.801 -7.125,-31.983 -38.818,-52.13 -70.801,-45.013 -1.69,0.375 -3.354,0.828 -5.001,1.348 V -284 c 0,-4.71 -3.823,-8.533 -8.533,-8.533 h -341.333 c -4.71,0 -8.533,3.823 -8.533,8.533 v 25.6 c 0.111,63.479 29.585,123.341 79.829,162.133 h -96.896 c -4.71,0 -8.533,3.823 -8.533,8.533 0.043,32.973 26.761,59.691 59.733,59.733 h 290.133 c 32.973,-0.043 59.691,-26.761 59.733,-59.733 0,-4.71 -3.823,-8.533 -8.533,-8.533 h -96.896 c 15.966,-12.373 30.02,-27.042 41.711,-43.52 z m 33.69,-76.638 19.541,-3.908 c 4.727,-1.007 9.378,2.005 10.385,6.733 0.964,4.54 -1.775,9.045 -6.246,10.274 l -29.5,8.431 c 2.33,-7.057 4.275,-14.225 5.82,-21.495 z m 46.6,-31.411 c 18.944,13.662 23.228,40.09 9.574,59.034 -5.99,8.311 -14.805,14.165 -24.789,16.478 l -52.241,12.057 c 2.62,-4.787 5.052,-9.677 7.287,-14.66 l 41.941,-11.989 c 13.722,-3.891 21.683,-18.167 17.792,-31.889 -3.686,-12.979 -16.734,-20.932 -29.961,-18.261 l -13.286,2.654 c 0.708,-5.879 1.118,-11.819 1.297,-17.801 l 4.267,-1.425 c 12.902,-4.369 27.119,-2.193 38.118,5.837 v -0.035 z m -76.305,202.769 h -290.133 c -20.267,-0.026 -37.734,-14.276 -41.813,-34.133 h 373.76 c -4.08,19.857 -21.547,34.108 -41.814,34.133 z m -76.075,-51.2 h -137.984 c -57.591,-33.715 -93.03,-95.403 -93.141,-162.133 v -17.067 h 324.267 v 17.067 c -0.111,66.731 -35.55,128.418 -93.142,162.133 z"
   id="path1245"
   style="fill:#d9a653;fill-opacity:1;stroke:none;stroke-opacity:0.97071078"
   inkscape:connector-curvature="0"
   inkscape:export-xdpi="8.9527082"
   inkscape:export-ydpi="8.9527082"
   inkscape:export-filename="/home/daniel/development/reveal-games/resources/barista 02/Karamell-9.png" /><path
   inkscape:connector-curvature="0"
   d="m -4753.703,-226.135 -16.649,3.738 c 4.975,22.187 16.213,52.907 41.335,73.062 l 10.667,-13.329 c -21.281,-17.025 -30.932,-43.913 -35.353,-63.471 z"
   id="path1247"
   inkscape:export-xdpi="8.9527082"
   inkscape:export-ydpi="8.9527082"
   style="fill:#decd87"
   inkscape:export-filename="/home/daniel/development/reveal-games/resources/barista 02/Karamell-9.png" /><path
   inkscape:connector-curvature="0"
   d="m -4757.816,-258.4 h -17.066 c 0.111,6.076 0.58,12.134 1.391,18.15 l 16.93,-2.167 c -0.717,-5.299 -1.135,-10.633 -1.255,-15.983 z"
   id="path1249"
   inkscape:export-xdpi="8.9527082"
   inkscape:export-ydpi="8.9527082"
   style="fill:#decd87"
   inkscape:export-filename="/home/daniel/development/reveal-games/resources/barista 02/Karamell-9.png" /></svg>